<svg width="128" height="128" viewBox="0 0 128 128" fill="none" xmlns="http://www.w3.org/2000/svg">
<path d="M44.57 73.85L19.84 71.64C19.84 71.64 19.75 74.49 19.75 77.18C19.75 80.28 20.36 82.81 20.36 82.81C20.36 82.81 5.29 86.52 4.02 98.06C2.75 109.6 25.42 124.39 59.49 123.96C93.56 123.53 114.39 110.3 115.52 98.2C116.65 86.1 97.36 83.28 97.36 83.28L98.2 76.8C98.2 76.8 118.33 75.67 119.32 65.68C120.31 55.69 110.59 56.53 110.59 56.53C110.59 56.53 113.83 59.91 113.69 62.58C113.55 65.25 111.72 68.21 107.07 69.48C102.42 70.75 95.81 71.45 95.81 71.45L44.57 73.85Z" fill="#BBCED3"/>
<path d="M101.72 52.31L97.07 55.41L97.63 57.52C97.63 57.52 106.78 56.68 110.44 58.08C114.1 59.49 117.62 65.4 117.62 65.4L121.98 59.49L106.63 50.9L101.72 52.31Z" fill="#6AA5AC"/>
<path d="M40.2 95.2C40.2 95.2 28.49 92.22 27.44 94.73C26.69 96.51 31.69 101.91 35.23 104.68C38.7 107.4 47.41 112.47 58.6 112.47C70.8 112.47 78.59 107.97 83.19 104.49C87.11 101.53 91.07 95.1 90.14 94.07C89.19 93.04 40.2 95.2 40.2 95.2Z" fill="#6AA5AC"/>
<path d="M21.01 86.42C21.01 86.42 8.21999 90.29 8.47999 98.2C8.75999 106.83 25.37 119.13 59.82 119.04C94.26 118.95 110.41 104.49 111.25 96.8C112.09 89.1 96.52 86.66 96.52 86.66C96.52 86.66 92.2 111.44 59.72 112C28.46 112.54 21.01 86.42 21.01 86.42Z" fill="#E0E0E0"/>
<path d="M96.61 47.9C96.61 47.9 105.01 47.19 109.47 47.71C115.1 48.37 123.92 52.59 123.74 62.63C123.56 72.67 114.35 77.36 108.72 79.24C104.63 80.6 94.36 81.02 94.36 81.02L95.39 74.83C95.39 74.83 104.02 74.83 108.34 73.23C112.66 71.63 116.88 67.97 116.97 62.53C117.08 56.31 109.84 54.46 104.49 54.55C99.14 54.64 94.07 55.86 94.07 55.86L96.61 47.9Z" fill="#E0E0E0"/>
<path d="M58.5 29.08C32.74 29.73 18.66 40.91 18.24 48.93C17.82 56.95 19.94 79.22 22.89 86.66C26.13 94.83 35.42 108.76 60.62 107.78C85.82 106.8 93 92.72 95.11 83.99C96.65 77.62 99.9 53.76 99.05 47.67C98.2 41.61 86.52 28.38 58.5 29.08Z" fill="#E0E0E0"/>
<path d="M96.61 90.41C96.69 91.68 100.26 92.47 99.43 96.42C98.49 100.83 94.27 101.58 94.36 103.27C94.47 105.26 105.06 103.74 105.53 96.89C105.99 90.04 96.51 89.01 96.61 90.41Z" fill="white"/>
<path d="M20.59 91.73C21.71 92.71 19.57 94.01 18.81 96.05C17.68 99.05 22.09 103.75 27.44 106.37C31.21 108.22 36.76 109.87 36.64 111.63C36.45 114.26 11.58 107.51 11.58 98.68C11.58 91.16 19.08 90.41 20.59 91.73Z" fill="white"/>
<path d="M23.5 62.91C22.03 64.59 22.5 76.38 25.1 83.84C27.35 90.32 29.89 94.16 32.42 94.26C34.95 94.35 30.82 83.75 31.01 76.9C31.2 70.05 31.01 68.17 29.6 66.58C28.19 64.98 24.81 61.41 23.5 62.91Z" fill="white"/>
<path d="M59.25 36.07C42.08 36.31 24.06 43.39 24.43 52.59C24.81 61.79 42.73 66.67 60 66.76C77.27 66.85 92.94 59.72 93.04 52.12C93.13 44.52 79.43 35.79 59.25 36.07Z" fill="#6D4B41"/>
<path d="M28.75 50.71C28.75 53.71 32.97 54.88 35.79 55.03C39.36 55.22 41.98 54.09 42.27 52.31C42.55 50.53 40.86 48.93 43.21 47.52C45.56 46.11 48.41 46.92 51.94 47.99C55.98 49.21 62.36 53.43 65.83 51.74C69.3 50.05 65.55 47.14 67.14 46.01C68.73 44.88 72.3 44.88 77.28 46.67C82.25 48.45 86.76 51.55 88.45 50.24C90.14 48.93 84.46 42.86 71.37 40.57C59.54 38.51 46.44 39.86 39.46 42.35C32.88 44.71 28.75 48.09 28.75 50.71Z" fill="#B59075"/>
<path d="M70.42 54.94C64.6 57.19 54.84 51.09 49.3 51.75C46.39 52.1 45.55 55.41 48.27 56.54C50.99 57.67 51.42 55.57 54.84 56.82C59.32 58.47 68.63 60.27 71.83 59.07C76.25 57.41 75.68 55.13 77.37 54.85C80.17 54.38 82.97 57.43 84.5 55.69C85.91 54.09 84.48 52.21 79.81 50.53C76.15 49.22 73.31 48.89 72.49 49.97C71.55 51.18 73.27 53.83 70.42 54.94Z" fill="#B59074"/>
<path opacity="0.4" d="M82.9 3.51C82.04 5.74 86.56 7.73 83.65 11.86C81.23 15.29 61.25 10.93 52.96 21.15C45.73 30.07 51.65 39.55 53.34 42.27C55.03 44.99 58.78 49.31 61.6 48.56C64.42 47.81 60.1 37.58 67.98 32.42C75.86 27.26 86.98 27.19 91.91 20.78C95.66 15.9 93.32 8.67 89.75 5.01C87.16 2.34 83.84 1.06 82.9 3.51Z" fill="#B8CED4"/>
</svg>
