<svg width="128" height="128" viewBox="0 0 128 128" fill="none" xmlns="http://www.w3.org/2000/svg">
<path d="M63.6 118.8C35.7 118.8 5.60001 101.3 5.60001 62.9C5.60001 24.5 35.7 7 63.6 7C79.1 7 93.4 12.1 104 21.4C115.5 31.6 121.6 46 121.6 62.9C121.6 79.8 115.5 94.1 104 104.3C93.4 113.6 79 118.8 63.6 118.8Z" fill="url(#paint0_radial_596_172)"/>
<path d="M111.49 29.67C116.82 38.27 119.6 48.51 119.6 59.9C119.6 76.8 113.5 91.1 102 101.3C91.4 110.6 77 115.8 61.6 115.8C43.54 115.8 24.56 108.45 13.42 92.86C24.18 110.52 44.41 118.8 63.6 118.8C79 118.8 93.4 113.6 104 104.3C115.5 94.1 121.6 79.8 121.6 62.9C121.6 50.16 118.13 38.84 111.49 29.67Z" fill="#EB8F00"/>
<path d="M86.11 100.49C85.79 100.43 85.49 100.28 85.24 100.06C80.98 96.38 75.65 93.76 69.73 92.43C63.82 91.1 57.88 91.17 52.45 92.67C52.13 92.76 51.79 92.76 51.48 92.68C50.79 92.5 50.25 91.93 50.12 91.22C49.99 90.53 50.28 89.84 50.87 89.43C56.79 85.35 64.15 83.96 71.27 85.57C78.39 87.17 84.45 91.58 88.04 97.81C88.4 98.43 88.37 99.18 87.95 99.75C87.54 100.34 86.81 100.62 86.11 100.49Z" fill="#422B0D"/>
<path d="M44.04 54.94C39.85 54.94 36.04 58.48 36.04 64.36C36.04 70.23 39.85 73.78 44.04 73.78C48.23 73.78 52.04 70.24 52.04 64.36C52.04 58.48 48.24 54.94 44.04 54.94Z" fill="#422B0D"/>
<path d="M43.65 58.87C42.62 58.15 41.07 58.38 40.07 59.82C39.07 61.27 39.4 62.79 40.43 63.51C41.46 64.23 43.01 64 44.01 62.56C45.01 61.12 44.69 59.59 43.65 58.87Z" fill="#896024"/>
<path d="M82.4 54.94C78.21 54.94 74.4 58.48 74.4 64.36C74.4 70.23 78.21 73.78 82.4 73.78C86.59 73.78 90.4 70.24 90.4 64.36C90.4 58.48 86.59 54.94 82.4 54.94Z" fill="#422B0D"/>
<path d="M82.01 58.87C80.98 58.15 79.43 58.38 78.43 59.82C77.43 61.27 77.76 62.79 78.79 63.51C79.82 64.23 81.37 64 82.37 62.56C83.38 61.11 83.04 59.59 82.01 58.87Z" fill="#896024"/>
<path d="M104 21.4C98.5 16.57 91.99 12.89 84.84 10.45L82.95 11.49L58.97 22.92L18.46 28.43L16.36 28.66C9.74001 37.32 5.60001 48.67 5.60001 62.9C5.60001 68.32 6.22001 73.31 7.33001 77.9L66.96 44.87L117.22 39.9C114.26 32.81 109.82 26.57 104 21.4Z" fill="#F5F5F5"/>
<path d="M7.69 79.4L7.13 77.22C7.13 77.22 38.96 52.36 70.89 42.76L76.49 43.61C44.37 53.8 8.02 79.16 7.69 79.4Z" fill="#808080"/>
<path d="M62.24 21.36L56.45 24.12L62.24 21.36Z" fill="url(#paint1_linear_596_172)"/>
<path d="M84.84 10.45C88.36 11.5 91.78 12.91 95.06 14.6C98.34 16.29 101.5 18.27 104.35 20.72C107.15 23.19 109.65 26.01 111.81 29.06C112.89 30.59 113.89 32.17 114.81 33.8C115.73 35.44 116.57 37.08 117.32 38.88L117.94 40.39L116.26 40.56C107.13 41.51 97.99 42.43 88.85 43.26C84.28 43.7 79.71 44.1 75.14 44.49C70.57 44.88 65.99 45.3 61.42 45.64C52.29 46.33 43.16 47.13 34.03 48.01L20.34 49.39C15.78 49.87 11.22 50.41 6.66 50.95C11.14 49.94 15.67 49.13 20.19 48.32C24.71 47.51 29.25 46.79 33.8 46.13C42.9 44.81 52.03 43.74 61.18 42.87L74.88 41.55C79.45 41.12 84.01 40.69 88.59 40.31C97.73 39.49 106.87 38.77 116.02 38.06L114.96 39.74C113.73 36.48 112.02 33.21 110.08 30.21C108.15 27.18 105.9 24.33 103.33 21.81C100.76 19.3 97.79 17.16 94.66 15.3C93.09 14.37 91.48 13.5 89.84 12.7C88.21 11.89 86.55 11.12 84.84 10.45Z" fill="#808080"/>
<path d="M104 21.45C98.8 21.76 93.65 21.9 88.49 22.09C85.91 22.21 83.33 22.17 80.75 22.31L73 22.72C67.84 22.99 62.67 23.36 57.52 23.81C52.36 24.21 47.21 24.72 42.05 25.27L42.03 25.17C52.29 23.69 62.6 22.64 72.93 21.9C78.1 21.55 83.27 21.25 88.45 21.13C93.63 21.03 98.82 21.03 103.99 21.36L104 21.45Z" fill="#808080"/>
<path d="M16.36 28.65C14.34 32.64 12.5 36.64 10.96 40.72C10.21 42.76 9.51 44.81 8.99 46.9C8.41 48.98 8.05 51.05 7.83 53.19C7.36 57.55 6.98 61.91 6.86 66.28C6.81 68.46 6.78 70.65 6.91 72.84C7.01 75.03 7.19 77.22 7.68 79.4C6.56 77.44 5.96 75.23 5.45 73.03C4.97 70.82 4.68 68.58 4.52 66.33C4.2 61.83 4.34 57.32 4.85 52.86C5.35 48.27 6.81 43.83 8.82 39.8C10.84 35.74 13.32 31.95 16.36 28.65Z" fill="#808080"/>
<defs>
<radialGradient id="paint0_radial_596_172" cx="0" cy="0" r="1" gradientUnits="userSpaceOnUse" gradientTransform="translate(63.6 62.8999) scale(56.9597 56.9597)">
<stop offset="0.5" stop-color="#FDE030"/>
<stop offset="0.9188" stop-color="#F7C02B"/>
<stop offset="1" stop-color="#F4A223"/>
</radialGradient>
<linearGradient id="paint1_linear_596_172" x1="59.5692" y1="24.5702" x2="58.3885" y2="14.9541" gradientUnits="userSpaceOnUse">
<stop offset="0.0652" stop-color="#B3B3B3"/>
<stop offset="0.2661" stop-color="#BDBDBD" stop-opacity="0.7505"/>
<stop offset="0.6106" stop-color="#D9D9D9" stop-opacity="0.3227"/>
<stop offset="0.8705" stop-color="#F2F2F2" stop-opacity="0"/>
</linearGradient>
</defs>
</svg>
