<svg width="128" height="128" viewBox="0 0 128 128" fill="none" xmlns="http://www.w3.org/2000/svg">
<path d="M74.06 115.46C85.44 126.84 104.07 126.84 115.46 115.46C126.84 104.08 126.84 85.45 115.46 74.06L84.7 43.3L43.3 84.7L74.06 115.46Z" fill="#F44336"/>
<path d="M84.7 43.3L53.94 12.54C42.56 1.16 23.93 1.16 12.54 12.54C1.16 23.92 1.16 42.55 12.54 53.94L43.3 84.7L84.7 43.3Z" fill="#FDD835"/>
<path d="M45.4192 86.8253L86.8199 45.4246L84.6986 43.3033L43.2979 84.704L45.4192 86.8253Z" fill="#C62828"/>
<g opacity="0.65">
<path d="M69.43 36.25C81.59 49.5 103.65 74.5 103.65 74.5C106.51 77.11 110.44 83.84 107.87 86.16C105.13 88.64 98.75 83.41 95.89 80.8L49.22 36.89C46.37 34.28 36.83 25.83 38.69 19.88C42.2 8.64998 55.89 21.49 69.43 36.25Z" fill="white"/>
</g>
</svg>
