<svg width="128" height="128" viewBox="0 0 128 128" fill="none" xmlns="http://www.w3.org/2000/svg">
<path d="M58.9 78.6L17.6 120.5C16.1 122 14.4 123 12.6 123.5C16.7 124.7 21.2 123.7 24.4 120.5L62.6 82.4C63.4 81.6 64.7 81.6 65.4 82.4L61.7 78.6C61 77.8 59.7 77.8 58.9 78.6Z" fill="#CC3333"/>
<path d="M82.3 65.4C81.5 64.6 81.5 63.4 82.3 62.6L120.5 24.5C125.2 19.8 125.2 12.2 120.5 7.50001C115.8 2.80001 108.3 2.80001 103.6 7.50001L65.4 45.6C64.6 46.4 63.4 46.4 62.6 45.6L24.5 7.50001C19.8 2.80001 12.2 2.80001 7.5 7.50001C7.1 7.90001 6.8 8.30001 6.5 8.70001C6.7 8.40001 6.9 8.20001 7.1 8.00001C11.8 3.40001 17.2 5.50001 21.9 10.2L59.5 48.7C60.3 49.5 61.5 49.5 62.3 48.7L101.6 9.50001C106.3 4.80001 111 4.40001 115.7 9.10001C120.4 13.8 119.6 18.7 114.9 23.4L75.6 62.6C74.8 63.4 74.8 64.6 75.6 65.4C75.6 65.4 113.7 103.6 113.6 103.6C118.3 108.3 120.1 113.6 115.4 118.3C110.7 123 104.8 121.8 100.1 117.2L103.5 120.6C108.2 125.3 115.8 125.3 120.5 120.6C125.2 115.9 125.2 108.4 120.5 103.7C120.5 103.6 82.3 65.4 82.3 65.4Z" fill="#CC3333"/>
<path d="M115.4 118.3C120.1 113.6 118.3 108.3 113.6 103.6C113.7 103.6 75.6 65.4 75.6 65.4C74.8 64.6 74.8 63.4 75.6 62.6L114.9 23.4C119.6 18.7 120.4 13.8 115.7 9.10001C111 4.40001 106.3 4.80001 101.6 9.50001L62.3 48.7C61.5 49.5 60.3 49.5 59.5 48.7L21.9 10.2C17.2 5.50001 11.8 3.40001 7.10001 8.00001C6.90001 8.20001 6.70001 8.40001 6.50001 8.70001C2.80001 13.4 3.20001 20.1 7.50001 24.4L45.6 62.6C46.4 63.4 46.4 64.7 45.6 65.4L7.50001 103.5C2.80001 108.2 2.80001 115.8 7.50001 120.5C9.00001 122 10.7 123 12.5 123.5C14.3 122.9 16.1 121.9 17.5 120.5L58.8 78.6C59.6 77.8 60.9 77.8 61.6 78.6L65.3 82.4L100 117.2C104.8 121.8 110.7 123 115.4 118.3Z" fill="#F44336"/>
<path opacity="0.2" d="M55 56.4C53.9 54.8 22.7 23.3 22.7 23.3C22.7 23.3 20.4 20.7 18 22.5C15.8 24.2 16.9 26.8 18.1 28.1C19.3 29.4 47.1 57.8 48.5 59C49.8 60.2 52.4 60.4 54 59.6C55.6 58.8 55.8 57.5 55 56.4Z" fill="white"/>
<path opacity="0.2" d="M12.2 22.3C14.0225 22.3 15.5 20.8226 15.5 19C15.5 17.1775 14.0225 15.7 12.2 15.7C10.3775 15.7 8.89999 17.1775 8.89999 19C8.89999 20.8226 10.3775 22.3 12.2 22.3Z" fill="white"/>
<path opacity="0.2" d="M72.1 81.8C73.2 83.4 104.9 114.4 104.9 114.4C104.9 114.4 107.2 117 109.6 115.1C111.8 113.4 110.6 110.8 109.4 109.5C108.2 108.2 80 80.2 78.6 79C77.3 77.8 74.7 77.7 73.1 78.5C71.5 79.3 71.3 80.7 72.1 81.8Z" fill="white"/>
</svg>
