<svg width="128" height="128" viewBox="0 0 128 128" fill="none" xmlns="http://www.w3.org/2000/svg">
<path d="M63.6 118.8C35.7 118.8 5.60001 101.3 5.60001 62.9C5.60001 24.5 35.7 7 63.6 7C79.1 7 93.4 12.1 104 21.4C115.5 31.6 121.6 46 121.6 62.9C121.6 79.8 115.5 94.1 104 104.3C93.4 113.6 79 118.8 63.6 118.8Z" fill="url(#paint0_radial_596_199)"/>
<path d="M111.49 29.67C116.82 38.27 119.6 48.51 119.6 59.9C119.6 76.8 113.5 91.1 102 101.3C91.4 110.6 77 115.8 61.6 115.8C43.54 115.8 24.6 108.45 13.42 92.86C24.18 110.52 44.42 118.8 63.6 118.8C79 118.8 93.4 113.6 104 104.3C115.5 94.1 121.6 79.8 121.6 62.9C121.6 50.16 118.13 38.84 111.49 29.67Z" fill="#EB8F00"/>
<path d="M48.6 54.7L48.4 54.9L47.9 55.4C47.7 55.6 47.5 55.7 47.2 56C46.88 56.26 46.55 56.49 46.2 56.7C45.8 56.9 45.4 57.2 45 57.4C44.6 57.6 44.1 57.8 43.6 58C43.11 58.18 42.61 58.31 42.1 58.4C41.57 58.49 41.04 58.52 40.5 58.5H39.6C39.36 58.52 39.12 58.48 38.9 58.4C38.39 58.31 37.89 58.18 37.4 58C36.92 57.84 36.45 57.64 36 57.4C35.6 57.2 35.2 56.9 34.8 56.7C34.1 56.2 33.5 55.7 33.1 55.4L32.5 54.8L32.3 54.6C31.01 53.44 29.08 53.36 27.7 54.4C26.73 55.16 26.4 56.48 26.9 57.6L27.1 57.9C27.21 58.18 27.35 58.44 27.5 58.7C28.11 59.73 28.85 60.67 29.7 61.5C30.29 62.08 30.93 62.62 31.6 63.1C32.39 63.65 33.22 64.12 34.1 64.5C35.06 64.94 36.07 65.27 37.1 65.5L38.8 65.8C39.1 65.8 39.5 65.9 39.6 65.9H40.4C41.51 65.9 42.61 65.8 43.7 65.6C44.74 65.39 45.74 65.05 46.7 64.6C47.58 64.22 48.41 63.75 49.2 63.2C49.9 62.75 50.54 62.21 51.1 61.6C51.59 61.15 52.03 60.65 52.4 60.1C52.6 59.9 52.7 59.6 52.9 59.4C53.1 59.2 53.2 59 53.3 58.8C53.47 58.56 53.61 58.29 53.7 58L53.8 57.8C54.42 56.4 53.78 54.75 52.38 54.13C52.26 54.08 52.13 54.03 52 54C50.83 53.49 49.47 53.77 48.6 54.7Z" fill="#422B0D"/>
<path d="M93.5 54.7L93.3 54.9L92.8 55.4C92.6 55.6 92.4 55.7 92.1 56C91.78 56.26 91.45 56.49 91.1 56.7C90.7 56.9 90.3 57.2 89.9 57.4C89.5 57.6 89 57.8 88.5 58C88.01 58.18 87.51 58.31 87 58.4C86.47 58.49 85.94 58.52 85.4 58.5H84.5C84.26 58.51 84.03 58.47 83.8 58.4C83.29 58.31 82.79 58.18 82.3 58C81.82 57.84 81.35 57.64 80.9 57.4C80.5 57.2 80.1 56.9 79.7 56.7C79 56.2 78.4 55.7 78 55.4L77.4 54.8L77.2 54.6C75.91 53.44 73.98 53.36 72.6 54.4C71.63 55.16 71.3 56.48 71.8 57.6L72 57.9C72.11 58.18 72.25 58.44 72.4 58.7C73.01 59.73 73.75 60.67 74.6 61.5C75.19 62.08 75.83 62.62 76.5 63.1C77.29 63.65 78.12 64.12 79 64.5C79.96 64.94 80.97 65.27 82 65.5L83.7 65.8C84 65.8 84.4 65.9 84.5 65.9H85.3C86.41 65.9 87.51 65.8 88.6 65.6C89.64 65.39 90.64 65.05 91.6 64.6C92.48 64.22 93.31 63.75 94.1 63.2C94.82 62.77 95.46 62.23 96 61.6C96.49 61.15 96.93 60.65 97.3 60.1C97.5 59.9 97.6 59.6 97.8 59.4C98 59.2 98.1 59 98.2 58.8C98.37 58.56 98.51 58.29 98.6 58L98.7 57.8C99.32 56.4 98.68 54.75 97.28 54.13C97.16 54.08 97.03 54.03 96.9 54C95.73 53.49 94.37 53.77 93.5 54.7Z" fill="#422B0D"/>
<path d="M77.2 21.6C76.86 21.41 76.49 21.27 76.1 21.2C75.7 21 75.2 20.9 74.8 20.7L72.7 20.1C71.9 19.8 71 19.6 70.2 19.3C68.6 18.8 66.6 17.5 65.6 19.8C65.33 20.29 65.19 20.84 65.2 21.4C65.2 22.2 65.8 22.6 66.5 22.9C67.24 23.23 68.01 23.49 68.8 23.7C69.05 23.83 69.32 23.89 69.6 23.9C69.8 23.9 70 24 70 24.2C70 24.4 69.8 24.4 69.7 24.5C69.6 24.6 69.3 24.8 69.1 24.9L68.8 25.1C68.26 25.5 67.69 25.87 67.1 26.2C66.7 26.5 66.2 26.8 65.8 27.1C65.58 27.2 65.38 27.33 65.2 27.5C64.61 27.9 64.04 28.34 63.5 28.8L63.3 29C62.76 29.43 62.37 30.03 62.2 30.7C62.1 31.6 62.8 32 63.6 32.4L64.5 32.7C65.55 33.09 66.62 33.43 67.7 33.7C68.5 34 69.4 34.2 70.2 34.5C71.8 35 73.8 36.3 74.8 34C75.07 33.51 75.21 32.96 75.2 32.4C75.1 31.69 74.59 31.1 73.9 30.9C73.16 30.57 72.39 30.31 71.6 30.1C71.4 30.1 71.3 30 71.1 29.9C70.9 29.8 70.8 29.8 70.7 29.8C70.5 29.6 70.9 29.4 71 29.3C71.42 29.07 71.82 28.8 72.2 28.5C72.62 28.23 73.02 27.93 73.4 27.6C73.6 27.5 73.8 27.3 74 27.2C74.4 26.9 74.9 26.6 75.3 26.3C76.4 25.4 78.9 24.3 78.1 22.6C77.89 22.2 77.58 21.85 77.2 21.6Z" fill="#5F7AFF"/>
<path d="M97.1 12.1C96.72 11.92 96.31 11.79 95.9 11.7C95.4 11.6 94.9 11.4 94.4 11.3C93.6 11.1 92.8 11 92.1 10.8C91.2 10.6 90.2 10.3 89.3 10.1C87.5 9.7 85.2 8.5 84.3 11.1C84.06 11.67 83.95 12.28 84 12.9C84.1 13.8 84.8 14.2 85.6 14.4C86.42 14.68 87.25 14.91 88.1 15.1C88.4 15.2 88.7 15.2 89 15.3C89.3 15.4 89.4 15.4 89.4 15.6C89.4 15.8 89.2 15.9 89.1 16C89 16.1 88.7 16.3 88.5 16.5C88.3 16.7 88.3 16.6 88.2 16.7C87.6 17.2 87 17.6 86.4 18.1L85 19.2C84.8 19.3 84.6 19.5 84.4 19.6C83.8 20.1 83.2 20.6 82.7 21.1C82.6 21.2 82.5 21.2 82.5 21.3C81.89 21.8 81.5 22.52 81.4 23.3C81.4 24.3 82.2 24.7 83.1 25.1L84.1 25.4C85.25 25.76 86.42 26.06 87.6 26.3C88.5 26.5 89.5 26.8 90.4 27C92.2 27.4 94.5 28.6 95.4 26C95.64 25.43 95.75 24.82 95.7 24.2C95.6 23.3 94.9 22.9 94.1 22.7C93.25 22.41 92.38 22.17 91.5 22C91.3 22 91.1 21.9 90.9 21.9C90.7 21.9 90.5 21.9 90.4 21.8C90.3 21.7 90.6 21.4 90.7 21.3C91.1 21 91.5 20.7 92 20.3L93.3 19.3C93.52 19.11 93.75 18.94 94 18.8C94.49 18.46 94.95 18.09 95.4 17.7C96.5 16.6 99.2 15.3 98.1 13.4C97.97 12.84 97.6 12.37 97.1 12.1Z" fill="#5F7AFF"/>
<path d="M123.6 9C123.22 8.36 122.67 7.83 122 7.5C121.48 7.29 120.95 7.12 120.4 7C119.75 6.79 119.08 6.62 118.4 6.5C117.4 6.2 116.3 6 115.3 5.8C114.1 5.5 112.8 5.1 111.6 4.8C109.2 4.2 106.2 2.6 104.9 6.1C104.57 6.86 104.44 7.68 104.5 8.5C104.68 9.56 105.54 10.37 106.6 10.5C107.72 10.86 108.85 11.16 110 11.4C110.4 11.5 110.8 11.6 111.1 11.7C111.4 11.8 111.7 11.8 111.7 12.1C111.66 12.32 111.51 12.51 111.3 12.6C111 12.8 110.8 13 110.5 13.2C110.39 13.32 110.25 13.43 110.1 13.5C109.3 14.1 108.5 14.7 107.8 15.3L106 16.8C105.75 17.02 105.48 17.22 105.2 17.4C104.4 18 103.7 18.7 102.9 19.4L102.6 19.7C101.8 20.34 101.29 21.28 101.2 22.3C101.2 23.6 102.3 24.2 103.5 24.7C103.92 24.88 104.35 25.01 104.8 25.1H104.9C106.4 25.6 108 25.9 109.6 26.3L113.3 27.2C115.7 27.8 118.8 29.4 120 25.9C120.33 25.14 120.46 24.32 120.4 23.5C120.22 22.44 119.36 21.63 118.3 21.5C117.2 21.08 116.06 20.74 114.9 20.5C114.6 20.4 114.4 20.4 114.1 20.3C113.88 20.3 113.68 20.23 113.5 20.1C113.2 19.8 113.7 19.5 113.9 19.4C114.49 19 115.06 18.56 115.6 18.1C116.2 17.6 116.8 17.2 117.3 16.7C117.62 16.5 117.93 16.26 118.2 16C118.84 15.56 119.45 15.05 120 14.5C121.5 13.2 125 11.4 123.6 9Z" fill="#5F7AFF"/>
<path d="M55.7 99.3C51.87 99.23 48.82 96.06 48.89 92.23C48.91 90.94 49.3 89.68 50 88.6C53.1 83.8 58 81.3 64 81.3C70 81.3 74.9 83.8 78 88.6C79.39 90.7 79.5 93.39 78.3 95.6C77.11 97.82 74.82 99.24 72.3 99.3C71.51 99.32 70.73 99.19 70 98.9C68.07 98.23 66.04 97.89 64 97.9C61.96 97.88 59.93 98.22 58 98.9C57.26 99.17 56.48 99.31 55.7 99.3Z" fill="#422B0D"/>
<defs>
<radialGradient id="paint0_radial_596_199" cx="0" cy="0" r="1" gradientUnits="userSpaceOnUse" gradientTransform="translate(63.6 62.8999) scale(56.9597 56.9597)">
<stop offset="0.5" stop-color="#FDE030"/>
<stop offset="0.92" stop-color="#F7C02B"/>
<stop offset="1" stop-color="#F4A223"/>
</radialGradient>
</defs>
</svg>
