<svg width="128" height="128" viewBox="0 0 128 128" fill="none" xmlns="http://www.w3.org/2000/svg">
<path d="M63.6 118.8C35.7 118.8 5.60001 101.3 5.60001 62.9C5.60001 24.5 35.7 7 63.6 7C79.1 7 93.4 12.1 104 21.4C115.5 31.6 121.6 46 121.6 62.9C121.6 79.8 115.5 94.1 104 104.3C93.4 113.6 79 118.8 63.6 118.8Z" fill="url(#paint0_radial_596_152)"/>
<path d="M111.49 29.67C116.82 38.27 119.6 48.51 119.6 59.9C119.6 76.8 113.5 91.1 102 101.3C91.4 110.6 77 115.8 61.6 115.8C43.54 115.8 24.6 108.45 13.42 92.86C24.18 110.52 44.42 118.8 63.6 118.8C79 118.8 93.4 113.6 104 104.3C115.5 94.1 121.6 79.8 121.6 62.9C121.6 50.16 118.13 38.84 111.49 29.67Z" fill="#EB8F00"/>
<path d="M63.6 118.8C35.7 118.8 5.60001 101.3 5.60001 62.9C5.60001 24.5 35.7 7 63.6 7C79.1 7 93.4 12.1 104 21.4C115.5 31.6 121.6 46 121.6 62.9C121.6 79.8 115.5 94.1 104 104.3C93.4 113.6 79 118.8 63.6 118.8Z" fill="url(#paint1_linear_596_152)"/>
<path d="M64 99.9C67.85 99.9 71.67 100.56 75.3 101.83C83 104.52 89.67 95.83 85.2 89.03C80.54 82 73.29 80 64 80C54.71 80 47.47 81.91 42.81 89C38.33 95.81 45.01 104.48 52.71 101.8C56.34 100.53 60.16 99.89 64 99.9Z" fill="#422B0D"/>
<path d="M19.52 107C11.06 107 4.51999 98.79 4.51999 91.76C4.51999 86.82 6.72999 81.09 9.85999 73.15C10.25 71.98 10.77 70.8 11.29 69.5C12.78 65.78 14.09 61.75 16.09 58.26C17.04 56.56 19.19 55.96 20.88 56.91C21.44 57.23 21.91 57.69 22.23 58.26C24.09 61.69 25.37 65.4 27.3 69.73C32.77 81.97 34.3 86.92 34.3 91.86C34.49 98.83 27.85 107 19.52 107Z" fill="url(#paint2_radial_596_152)"/>
<path d="M28.67 97.65C26.76 100.65 22.42 100.05 22.42 95.14C22.42 92 23.06 75.88 25.76 78.14C30.14 81.81 31.39 93.47 28.67 97.65Z" fill="#81D4FA"/>
<path d="M27.39 39.77C25.19 40.16 25.08 43.36 27.48 43.47C32.78 43.55 37.9 41.59 41.8 38C43.28 36.72 44.54 35.21 45.51 33.51C46.09 32.68 45.89 31.54 45.07 30.95C44.25 30.36 43.1 30.57 42.51 31.39L42.41 31.49C38.48 35.88 33.19 38.79 27.39 39.77Z" fill="#422B0D"/>
<path d="M86.12 31.52L86.02 31.42C85.44 30.59 84.29 30.39 83.46 30.97C82.63 31.55 82.43 32.7 83.02 33.53C84 35.22 85.26 36.73 86.75 38C90.65 41.59 95.77 43.54 101.07 43.45C103.47 43.34 103.36 40.14 101.15 39.75C95.35 38.78 90.06 35.88 86.12 31.52Z" fill="#422B0D"/>
<path d="M44 49.94C39.81 49.94 36 53.48 36 59.36C36 65.24 39.81 68.77 44 68.77C48.2 68.77 52 65.23 52 59.36C52 53.49 48.24 49.94 44 49.94Z" fill="#422B0D"/>
<path d="M43.65 53.87C42.23 53.19 40.52 53.79 39.83 55.21C39.3 56.32 39.54 57.65 40.43 58.51C41.85 59.19 43.56 58.59 44.25 57.17C44.78 56.06 44.54 54.73 43.65 53.87Z" fill="#896024"/>
<path d="M82.4 49.94C78.21 49.94 74.4 53.48 74.4 59.36C74.4 65.24 78.21 68.77 82.4 68.77C86.59 68.77 90.4 65.23 90.4 59.36C90.4 53.49 86.59 49.94 82.4 49.94Z" fill="#422B0D"/>
<path d="M82 53.87C80.58 53.19 78.87 53.79 78.18 55.21C77.65 56.32 77.89 57.65 78.78 58.51C80.2 59.19 81.91 58.59 82.6 57.17C83.13 56.06 82.89 54.73 82 53.87Z" fill="#896024"/>
<defs>
<radialGradient id="paint0_radial_596_152" cx="0" cy="0" r="1" gradientUnits="userSpaceOnUse" gradientTransform="translate(63.6 62.9) scale(56.9597 56.9597)">
<stop offset="0.5" stop-color="#FDE030"/>
<stop offset="0.92" stop-color="#F7C02B"/>
<stop offset="1" stop-color="#F4A223"/>
</radialGradient>
<linearGradient id="paint1_linear_596_152" x1="63.6" y1="118.8" x2="63.6" y2="7" gradientUnits="userSpaceOnUse">
<stop offset="0.39" stop-color="#40C0E7" stop-opacity="0"/>
<stop offset="1" stop-color="#5F7AFF"/>
</linearGradient>
<radialGradient id="paint2_radial_596_152" cx="0" cy="0" r="1" gradientUnits="userSpaceOnUse" gradientTransform="translate(20.59 62.9463) scale(33.4 51.436)">
<stop offset="0.46" stop-color="#29B6F6"/>
<stop offset="1" stop-color="#1E88E5"/>
</radialGradient>
</defs>
</svg>
