<svg width="128" height="128" viewBox="0 0 128 128" fill="none" xmlns="http://www.w3.org/2000/svg">
<path d="M87.45 86.8C85.67 84.88 83.34 82.38 81.3 80.22C77.34 76.05 72.5 72.93 72.5 72.93L64.45 81.57C64.45 81.57 67.58 87.33 71.57 90.76C73.52 92.44 75.96 94.15 77.95 95.47C77.65 96.46 77.35 97.75 77.22 99.29C76.84 104.07 77.58 110.37 77.61 111.07C77.73 114.73 77.77 117.44 77.77 117.44L84.11 117.42L89.39 94C89.97 91.43 89.25 88.73 87.45 86.8Z" fill="url(#paint0_linear_596_94)"/>
<path d="M55.49 72.93C55.49 72.93 50.65 76.05 46.7 80.23C44.66 82.39 42.33 84.89 40.55 86.81C38.75 88.74 38.03 91.44 38.61 94.01L43.89 117.43L50.23 117.45C50.23 117.45 50.27 114.74 50.39 111.08C50.41 110.38 51.16 104.08 50.78 99.3C50.66 97.76 50.35 96.47 50.05 95.48C52.04 94.16 54.48 92.45 56.43 90.77C60.42 87.34 63.55 81.58 63.55 81.58L55.49 72.93Z" fill="url(#paint1_linear_596_94)"/>
<path d="M42.29 111.07L43.9 117.42L50.24 117.44L50.38 111.07H42.29Z" fill="#E0E0E0"/>
<path d="M52.42 119.94C52.41 118.02 50.76 115.84 50.76 115.84H43.01L37.03 117.95C35.49 118.56 34.47 120.04 34.47 121.7V122.98C34.47 123.54 34.92 124 35.48 124L51.27 123.95C51.91 123.95 52.43 123.43 52.43 122.78L52.42 119.94Z" fill="#4568AD"/>
<path d="M77.61 111.07L77.78 117.44L84.11 117.42L85.71 111.07H77.61Z" fill="#E0E0E0"/>
<path d="M90.97 117.95L85 115.84H77.25C77.25 115.84 75.59 118.02 75.59 119.95L75.58 122.79C75.58 123.43 76.1 123.95 76.74 123.96L92.52 124C93.08 124 93.53 123.55 93.53 122.98V121.7C93.53 120.04 92.51 118.56 90.97 117.95Z" fill="#4568AD"/>
<path d="M74.86 41.11C74.47 40.41 74.97 39.69 75.8 38.81C77.13 37.41 78.58 34.15 77.24 30.84C77.25 30.82 76.98 30.26 76.98 30.25L76.42 30.22C76.24 30.19 70.15 30.18 64.06 30.18C57.97 30.18 51.88 30.19 51.7 30.22C51.7 30.22 50.88 30.82 50.89 30.84C49.54 34.15 50.99 37.4 52.33 38.81C53.17 39.69 53.66 40.41 53.27 41.11C52.9 41.79 51.78 41.89 51.78 41.89C51.78 41.89 52.04 42.59 52.66 42.97C53.23 43.32 53.94 43.4 54.42 43.41C54.42 43.41 56.32 46.04 61.29 46.04H64.06H66.83C71.8 46.04 73.7 43.41 73.7 43.41C74.19 43.4 74.89 43.32 75.46 42.97C76.08 42.59 76.34 41.89 76.34 41.89C76.34 41.89 75.23 41.8 74.86 41.11Z" fill="#543930"/>
<path d="M64.06 46.04V43.12L72.9 42.42L73.7 43.41C73.7 43.41 71.8 46.04 66.83 46.04H64.06Z" fill="url(#paint2_radial_596_94)"/>
<path d="M73.68 42.14C72.36 40.13 75.29 39.38 75.29 39.38C74.78 40.01 74.55 40.57 74.85 41.11C75.22 41.79 76.34 41.89 76.34 41.89C76.34 41.89 74.82 43.24 73.68 42.14Z" fill="url(#paint3_radial_596_94)"/>
<path d="M77.24 30.85C78.55 34.05 77.17 37.35 75.88 38.74C75.7 38.93 74.95 39.67 74.78 40.26C74.78 40.26 71.83 36.14 70.95 33.73C70.77 33.24 70.61 32.74 70.59 32.22C70.57 31.83 70.63 31.37 70.86 31.04C71.14 30.63 77.1 30.52 77.1 30.52C77.09 30.51 77.24 30.85 77.24 30.85Z" fill="url(#paint4_radial_596_94)"/>
<path d="M50.89 30.85C49.58 34.05 50.96 37.35 52.25 38.74C52.43 38.93 53.18 39.67 53.35 40.26C53.35 40.26 56.3 36.14 57.18 33.73C57.36 33.24 57.52 32.74 57.54 32.22C57.56 31.83 57.5 31.37 57.27 31.04C56.99 30.63 56.67 30.74 56.21 30.74C55.32 30.74 51.42 30.51 51.12 30.51C51.13 30.51 50.89 30.85 50.89 30.85Z" fill="url(#paint5_radial_596_94)"/>
<path d="M64.07 46.04V43.12L55.23 42.42L54.43 43.41C54.43 43.41 56.33 46.04 61.3 46.04H64.07Z" fill="url(#paint6_radial_596_94)"/>
<path d="M54.46 42.14C55.79 40.13 52.85 39.38 52.85 39.38C53.36 40.01 53.59 40.57 53.29 41.11C52.92 41.79 51.8 41.89 51.8 41.89C51.8 41.89 53.31 43.24 54.46 42.14Z" fill="url(#paint7_radial_596_94)"/>
<path d="M96.26 23.12L91.72 20.83C88.09 24.39 86.37 27.44 84.75 32.75C81.32 34.38 78.36 37.37 76.44 40.46C74.4 43.27 73.12 44.83 71.65 47.62C70.54 49.74 71.34 52.1 73.35 53.57C74.3 54.27 75.07 54.57 75.82 54.57C76.66 54.57 77.46 54.18 78.44 53.52C80.51 52.34 83.32 49.22 85.12 46.9L85.07 46.87C87.36 44.02 89.67 40 90.82 36.2C94.04 32.84 96.26 28.43 96.26 23.12Z" fill="url(#paint8_linear_596_94)"/>
<path d="M56.35 47.63C54.88 44.84 53.6 43.28 51.56 40.47C49.64 37.38 46.68 34.39 43.25 32.76C41.62 27.43 39.9 24.39 36.27 20.83L31.74 23.13C31.74 28.44 33.96 32.84 37.18 36.21C38.33 40 40.63 44.03 42.93 46.88L42.88 46.91C44.68 49.23 47.49 52.35 49.56 53.53C50.54 54.19 51.34 54.58 52.18 54.58C52.93 54.58 53.7 54.27 54.65 53.58C56.65 52.11 57.46 49.74 56.35 47.63Z" fill="url(#paint9_linear_596_94)"/>
<path d="M76.44 40.46C74.65 42.92 73.45 44.43 72.19 46.64C70.96 46.32 69.57 46.14 68.03 46.14H59.86C58.35 46.14 57 46.32 55.8 46.63C54.54 44.42 53.34 42.91 51.55 40.45L42.88 46.9C44.68 49.22 48.56 53.52 48.56 53.52C49.39 57.58 54.17 73.72 54.17 73.72H74.44L79.61 53.44C79.61 53.44 83.36 49.16 85.12 46.91L76.44 40.46Z" fill="url(#paint10_linear_596_94)"/>
<path d="M60.53 46.84C60.53 48.5 61.94 49.85 63.68 49.85H64.31C66.05 49.85 67.46 48.5 67.46 46.84V43.17H60.53V46.84Z" fill="#E59600"/>
<path d="M55.54 38.6C53.99 38.6 52.72 37.24 52.72 35.57C52.72 33.9 53.98 32.54 55.54 32.54H72.46C74.01 32.54 75.28 33.9 75.28 35.57C75.28 37.24 74.02 38.6 72.46 38.6H55.54Z" fill="#E59600"/>
<path d="M64 19.95C58.64 19.95 53.68 25.68 53.68 33.92C53.68 42.12 58.79 46.17 64 46.17C69.21 46.17 74.32 42.12 74.32 33.92C74.32 25.68 69.36 19.95 64 19.95Z" fill="#FFCA28"/>
<path d="M65.19 37.49C65.16 37.48 65.12 37.47 65.09 37.46H62.9C62.87 37.46 62.83 37.47 62.8 37.49C62.6 37.57 62.49 37.78 62.59 38C62.68 38.22 63.12 38.83 64 38.83C64.88 38.83 65.31 38.22 65.41 38C65.5 37.78 65.39 37.57 65.19 37.49Z" fill="#E59600"/>
<path d="M66.6 39.97C65.61 40.56 62.38 40.56 61.4 39.97C60.83 39.63 60.25 40.15 60.49 40.66C60.72 41.17 62.49 42.34 64.01 42.34C65.53 42.34 67.28 41.17 67.51 40.66C67.74 40.15 67.17 39.63 66.6 39.97Z" fill="#795548"/>
<path d="M58.98 36.18C59.8084 36.18 60.48 35.4816 60.48 34.62C60.48 33.7584 59.8084 33.06 58.98 33.06C58.1516 33.06 57.48 33.7584 57.48 34.62C57.48 35.4816 58.1516 36.18 58.98 36.18Z" fill="#404040"/>
<path d="M69.02 36.18C69.8484 36.18 70.52 35.4816 70.52 34.62C70.52 33.7584 69.8484 33.06 69.02 33.06C68.1916 33.06 67.52 33.7584 67.52 34.62C67.52 35.4816 68.1916 36.18 69.02 36.18Z" fill="#404040"/>
<path d="M61.21 31.82C60.92 31.44 60.26 30.89 58.98 30.89C57.69 30.89 57.03 31.44 56.75 31.82C56.62 31.99 56.66 32.18 56.74 32.3C56.82 32.41 57.06 32.51 57.33 32.42C57.6 32.33 58.11 32.06 58.98 32.05C59.85 32.06 60.37 32.32 60.63 32.42C60.9 32.51 61.14 32.41 61.22 32.3C61.31 32.18 61.34 31.99 61.21 31.82Z" fill="#6D4C41"/>
<path d="M71.25 31.82C70.96 31.44 70.3 30.89 69.02 30.89C67.73 30.89 67.07 31.44 66.79 31.82C66.66 31.99 66.7 32.18 66.78 32.3C66.86 32.41 67.1 32.51 67.37 32.42C67.64 32.33 68.15 32.06 69.02 32.05C69.89 32.06 70.41 32.32 70.67 32.42C70.94 32.51 71.18 32.41 71.26 32.3C71.35 32.18 71.38 31.99 71.25 31.82Z" fill="#6D4C41"/>
<path d="M76.46 24.19C75.71 23.05 74.01 21.52 72.5 21.42C72.26 19.96 70.69 18.72 69.18 18.25C65.09 16.95 62.43 18.41 60.99 19.19C60.69 19.35 58.77 20.42 57.43 19.65C56.59 19.17 56.6 17.88 56.6 17.88C56.6 17.88 53.96 18.88 54.86 21.68C53.96 21.72 52.77 22.1 52.14 23.37C51.39 24.88 51.66 26.15 51.87 26.76C51.09 27.42 50.11 28.83 50.78 30.66C51.29 32.04 53.31 32.67 53.31 32.67C53.17 35.15 53.63 36.67 53.87 37.29C53.91 37.4 54.07 37.39 54.09 37.28C54.4 36.05 55.44 31.78 55.34 31.03C55.34 31.03 58.85 30.33 62.19 27.87C62.87 27.37 63.61 26.94 64.39 26.63C68.59 24.96 69.47 27.81 69.47 27.81C69.47 27.81 72.38 27.25 73.26 31.3C73.59 32.82 73.82 35.24 74 36.94C74.01 37.06 74.18 37.09 74.22 36.97C74.51 36.3 75.1 34.96 75.24 33.6C75.29 33.12 76.58 32.49 77.14 30.43C77.92 27.65 77 25.01 76.46 24.19Z" fill="#543930"/>
<path d="M75.27 33.58C75.32 33.1 76.61 32.47 77.17 30.41C77.23 30.19 77.28 29.97 77.32 29.74C77.77 27.24 76.96 24.94 76.46 24.18C75.76 23.12 74.26 21.74 72.84 21.45C72.72 21.43 72.6 21.42 72.48 21.41C72.48 21.41 72.58 22.07 72.31 22.6C71.96 23.29 71.26 23.45 71.26 23.45C74.96 27.17 74.7 30.27 75.27 33.58Z" fill="url(#paint11_radial_596_94)"/>
<path d="M61.89 18.71C61.55 18.87 61.25 19.04 60.99 19.18C60.69 19.34 58.77 20.41 57.43 19.64C56.6 19.17 56.6 17.91 56.6 17.87C56.22 18.36 55.07 21.82 58.43 22.05C59.88 22.15 60.78 20.88 61.31 19.81C61.5 19.43 61.81 18.86 61.89 18.71Z" fill="url(#paint12_radial_596_94)"/>
<path d="M68.75 18.11C71.01 18.72 72.12 19.87 72.49 21.41C72.6 21.86 72.73 26.07 64.69 21.29C61.7 19.51 62.52 18.39 62.87 18.27C64.23 17.78 66.22 17.43 68.75 18.11Z" fill="url(#paint13_radial_596_94)"/>
<path d="M56.59 17.87C56.58 17.87 56.58 17.87 56.57 17.88C56.28 18 54.02 19.05 54.86 21.67L57.27 22.06C55.15 19.9 56.6 17.86 56.59 17.87C56.6 17.87 56.6 17.86 56.59 17.87Z" fill="url(#paint14_radial_596_94)"/>
<path d="M56.36 21.91L54.87 21.67C54.81 21.67 54.61 21.69 54.51 21.7C53.67 21.82 52.69 22.25 52.15 23.36C51.58 24.55 51.59 25.58 51.75 26.26C51.79 26.49 51.89 26.75 51.89 26.75C51.89 26.75 52.63 26.05 54.38 26.01L56.36 21.91Z" fill="url(#paint15_radial_596_94)"/>
<path d="M51.81 26.81C51.08 27.46 50.09 28.91 50.82 30.71C51.37 32.07 53.32 32.66 53.32 32.66C53.32 32.67 53.71 32.78 53.91 32.78L54.37 26C53.43 26 52.53 26.28 51.95 26.68C51.96 26.7 51.81 26.8 51.81 26.81Z" fill="url(#paint16_radial_596_94)"/>
<path d="M40.26 17.16C39.36 16.63 35.09 15.96 32.14 15.96C30.52 15.96 29.31 16.17 29.31 16.72L29.3 20.15C29.29 23.6 31.54 26.42 35.26 26.43H35.27C42.01 26.43 42.54 18.49 40.26 17.16Z" fill="url(#paint17_radial_596_94)"/>
<path d="M40.02 20.82C39.98 20.95 39.63 21.08 39.25 21.18H39.24C38.8 21.29 38.28 21.51 37.31 21.78C35.96 22.16 35.85 23.97 35.85 23.97C35.6 23.03 36.24 21.38 37.13 21V20.99C37.55 20.79 38.02 20.68 38.52 20.6C38.6 20.59 38.8 20.58 39.05 20.59H39.06C39.51 20.6 40.07 20.66 40.02 20.82Z" fill="#EDA600"/>
<path d="M124 18.5C124 19.88 123.27 21 122.36 21H5.64C4.74 21 4 19.88 4 18.5C4 17.12 4.74 16 5.64 16H122.35C123.26 16 124 17.12 124 18.5Z" fill="url(#paint18_linear_596_94)"/>
<path d="M20.92 32.99C24.23 32.99 26.92 30.3 26.92 26.99V10.14C26.92 6.83 24.23 4.14 20.92 4.14C17.61 4.14 14.92 6.83 14.92 10.14V26.99C14.92 30.3 17.6 32.99 20.92 32.99Z" fill="url(#paint19_radial_596_94)"/>
<path d="M107.08 32.99C103.77 32.99 101.08 30.3 101.08 26.99V10.14C101.08 6.83 103.77 4.14 107.08 4.14C110.39 4.14 113.08 6.83 113.08 10.14V26.99C113.08 30.3 110.4 32.99 107.08 32.99Z" fill="url(#paint20_radial_596_94)"/>
<path d="M10 27.22C12.21 27.22 14 25.43 14 23.22V13.91C14 11.7 12.21 9.91 10 9.91C7.79 9.91 6 11.7 6 13.91V23.22C6 25.43 7.79 27.22 10 27.22Z" fill="url(#paint21_radial_596_94)"/>
<path d="M118 27.22C115.79 27.22 114 25.43 114 23.22V13.91C114 11.7 115.79 9.91 118 9.91C120.21 9.91 122 11.7 122 13.91V23.22C122 25.43 120.21 27.22 118 27.22Z" fill="url(#paint22_radial_596_94)"/>
<path d="M38.61 21H29.28L28.48 16H38.61V21Z" fill="#646464"/>
<path d="M41.22 15.04L40.93 16.59L40.87 16.93L40.73 17.68L40.65 18.12C40.48 19.02 39.69 19.65 38.81 19.65C38.7 19.65 38.58 19.64 38.47 19.62C38.01 19.54 37.62 19.3 37.35 18.94C37.02 19.24 36.59 19.41 36.12 19.41C35.84 19.41 34.96 19.02 34.81 18.87C34.77 18.83 34.73 18.79 34.7 18.74C34.66 18.77 34.62 18.81 34.58 18.84C34.56 18.85 33.99 19.19 33.41 19.18C32.87 19.17 32.33 18.84 32.17 18.68C32.01 18.91 31.79 19.11 31.53 19.25C31.35 19.36 31.15 19.43 30.93 19.46C30.83 19.48 30.73 19.49 30.63 19.49C30.23 19.49 29.84 19.36 29.52 19.12C29.1 18.82 28.83 18.38 28.76 17.88L28.63 17.03V17.02L28.46 15.93C28.38 15.43 28.5 14.93 28.8 14.52C29.1 14.1 29.54 13.83 30.04 13.76C30.16 13.74 30.28 13.73 30.4 13.74C30.43 13.74 30.47 13.74 30.5 13.75C30.82 13.77 31.14 13.88 31.42 14.08C31.46 14.11 31.49 14.14 31.52 14.16C31.58 13.93 31.7 13.71 31.85 13.53C31.89 13.47 31.93 13.42 31.98 13.37C32.04 13.3 32.09 13.27 32.11 13.25C32.12 13.25 32.12 13.24 32.12 13.24C32.42 12.98 32.81 12.82 33.24 12.8C33.38 12.79 33.52 12.8 33.65 12.82C33.75 12.84 33.84 12.87 33.93 12.9C34.19 12.98 34.42 13.11 34.62 13.29C34.68 13.21 34.75 13.13 34.82 13.06C34.92 12.96 35.03 12.87 35.14 12.8C35.2 12.76 35.27 12.73 35.33 12.69C35.58 12.57 35.86 12.51 36.15 12.52C36.47 12.52 36.78 12.6 37.06 12.76C37.11 12.78 37.15 12.81 37.19 12.84C37.29 12.91 37.38 12.99 37.47 13.08C37.63 13.24 37.76 13.43 37.85 13.63C37.97 13.45 38.13 13.28 38.32 13.15C38.36 13.12 38.41 13.09 38.46 13.07C38.66 12.96 38.87 12.88 39.09 12.85C39.3 12.82 39.51 12.82 39.72 12.86C40.22 12.95 40.64 13.23 40.93 13.64C41.21 14.06 41.31 14.55 41.22 15.04Z" fill="url(#paint23_linear_596_94)"/>
<path d="M75.45 74.12L74.75 72.16H53.78L53.4 74.16L44.4 82.07L54.44 92.5C54.44 92.5 61.23 86.83 61.84 86.29C62.51 85.69 63.32 85.62 63.81 85.61C64.3 85.62 65.11 85.69 65.78 86.29C66.39 86.84 73.18 92.5 73.18 92.5L83.6 82.07L75.45 74.12Z" fill="#7C7C7C"/>
<path d="M41.03 16.12C40.68 17.02 38.78 16.16 38.06 15.79C37.95 14.91 37.84 14.33 37.84 14.33C37.84 14.33 37.84 14.33 37.84 14.34C37.87 14.84 37.37 15.2 36.9 15.02C36.37 14.81 35.76 14.64 35.32 14.66C35.15 14.67 35.01 14.7 34.88 14.74C34.76 14.35 34.69 14.09 34.69 14.09C34.69 14.09 34.69 14.13 34.69 14.2C34.67 14.54 34.51 14.86 34.23 15.05C33.14 15.76 32.86 17.1 34.15 18.53C33.71 18.83 33.02 18.81 32.63 18.41C32.13 17.91 31.92 16.32 31.63 15.14C31.72 15.98 31.97 17.48 31.85 18.06C31.7 18.76 31 19.2 30.3 19.03C29.69 18.88 28.97 18.39 28.62 17.04L28.75 17.89C28.82 18.39 29.09 18.83 29.51 19.13C29.83 19.37 30.22 19.5 30.62 19.5C30.72 19.5 30.82 19.49 30.92 19.47C31.11 19.44 31.28 19.38 31.44 19.3C31.45 19.29 31.47 19.29 31.48 19.28C31.49 19.27 31.51 19.27 31.52 19.26C31.94 19.03 32.15 18.71 32.16 18.69C32.21 18.77 32.73 19.2 33.36 19.2C34.23 19.2 34.57 18.85 34.57 18.85C34.65 18.9 34.73 18.94 34.81 18.97C34.87 18.99 37.21 19.78 37.12 20.67C37.11 20.78 37.12 20.89 37.13 21V21.04C37.13 21.04 37.13 21.04 37.13 21.05C37.16 21.31 37.22 21.56 37.31 21.79L37.32 21.78C37.56 21.59 38.14 21.75 38.19 21.41C38.38 20.12 38.33 18.58 38.21 17.26L40.73 17.68L41.03 16.12Z" fill="#EDA600"/>
<path d="M41.51 19.38C41.02 16.69 37.77 15.57 36.55 15.14C36.4 15.09 34.17 14.56 33.9 16.54C33.78 17.4 34.43 18.34 35.26 18.66C37.53 19.53 37.52 20.01 37.52 20.33C37.51 21.16 37.97 22.73 38.69 23.2C38.84 23.3 39.01 23.36 39.17 23.36C39.27 23.36 39.37 23.34 39.47 23.3C40.88 22.71 41.79 20.95 41.51 19.38Z" fill="url(#paint24_linear_596_94)"/>
<path d="M87.86 17.16C88.76 16.63 93.03 15.96 95.98 15.96C97.6 15.96 98.81 16.17 98.81 16.72L98.82 20.15C98.83 23.6 96.58 26.42 92.86 26.43H92.85C86.11 26.43 85.57 18.49 87.86 17.16Z" fill="url(#paint25_radial_596_94)"/>
<path d="M88.1 20.82C88.14 20.95 88.49 21.08 88.87 21.18H88.88C89.32 21.29 89.84 21.51 90.81 21.78C92.16 22.16 92.27 23.97 92.27 23.97C92.52 23.03 91.88 21.38 90.99 21V20.99C90.57 20.79 90.1 20.68 89.6 20.6C89.52 20.59 89.32 20.58 89.07 20.59H89.06C88.61 20.6 88.05 20.66 88.1 20.82Z" fill="#EDA600"/>
<path d="M89.51 16H99.64L98.84 21H89.51V16Z" fill="#646464"/>
<path d="M86.9 15.04L87.19 16.59L87.25 16.93L87.39 17.68L87.47 18.12C87.64 19.02 88.43 19.65 89.31 19.65C89.42 19.65 89.54 19.64 89.65 19.62C90.11 19.54 90.5 19.3 90.77 18.94C91.1 19.24 91.53 19.41 92 19.41C92.28 19.41 93.16 19.02 93.31 18.87C93.35 18.83 93.39 18.79 93.42 18.74C93.46 18.77 93.5 18.81 93.54 18.84C93.56 18.85 94.13 19.19 94.71 19.18C95.25 19.17 95.78 18.84 95.95 18.68C96.11 18.91 96.33 19.11 96.59 19.25C96.77 19.36 96.97 19.43 97.19 19.46C97.29 19.48 97.39 19.49 97.49 19.49C97.89 19.49 98.28 19.36 98.6 19.12C99.02 18.82 99.29 18.38 99.36 17.88L99.49 17.03V17.02L99.66 15.93C99.74 15.43 99.62 14.93 99.32 14.52C99.02 14.1 98.58 13.83 98.08 13.76C97.96 13.74 97.84 13.73 97.72 13.74C97.69 13.74 97.65 13.74 97.62 13.75C97.3 13.77 96.98 13.88 96.7 14.08C96.66 14.11 96.63 14.14 96.6 14.16C96.54 13.93 96.42 13.71 96.27 13.53C96.23 13.47 96.19 13.42 96.14 13.37C96.08 13.3 96.03 13.27 96.01 13.25C96 13.25 96 13.24 96 13.24C95.7 12.98 95.31 12.82 94.88 12.8C94.74 12.79 94.6 12.8 94.47 12.82C94.37 12.84 94.28 12.87 94.19 12.9C93.93 12.98 93.7 13.11 93.5 13.29C93.44 13.21 93.37 13.13 93.3 13.06C93.2 12.96 93.09 12.87 92.98 12.8C92.92 12.76 92.85 12.73 92.79 12.69C92.54 12.57 92.26 12.51 91.97 12.52C91.65 12.52 91.34 12.6 91.06 12.76C91.01 12.78 90.97 12.81 90.93 12.84C90.83 12.91 90.74 12.99 90.65 13.08C90.49 13.24 90.36 13.43 90.27 13.63C90.15 13.45 89.99 13.28 89.8 13.15C89.76 13.12 89.71 13.09 89.66 13.07C89.46 12.96 89.25 12.88 89.03 12.85C88.82 12.82 88.61 12.82 88.4 12.86C87.9 12.95 87.48 13.23 87.19 13.64C86.91 14.06 86.81 14.55 86.9 15.04Z" fill="url(#paint26_linear_596_94)"/>
<path d="M87.09 16.12C87.44 17.02 89.34 16.16 90.06 15.79C90.17 14.91 90.28 14.33 90.28 14.33C90.28 14.33 90.28 14.33 90.28 14.34C90.25 14.84 90.75 15.2 91.22 15.02C91.75 14.81 92.36 14.64 92.8 14.66C92.97 14.67 93.11 14.7 93.24 14.74C93.36 14.35 93.43 14.09 93.43 14.09C93.43 14.09 93.43 14.13 93.43 14.2C93.45 14.54 93.61 14.86 93.89 15.05C94.98 15.76 95.26 17.1 93.97 18.53C94.41 18.83 95.1 18.81 95.49 18.41C95.99 17.91 96.2 16.32 96.49 15.14C96.4 15.98 96.15 17.48 96.27 18.06C96.41 18.76 97.12 19.2 97.82 19.03C98.43 18.88 99.15 18.39 99.5 17.04L99.37 17.89C99.3 18.39 99.03 18.83 98.61 19.13C98.29 19.37 97.9 19.5 97.5 19.5C97.4 19.5 97.3 19.49 97.2 19.47C97.01 19.44 96.84 19.38 96.68 19.3C96.67 19.29 96.65 19.29 96.64 19.28C96.63 19.27 96.61 19.27 96.6 19.26C96.18 19.03 95.97 18.71 95.96 18.69C95.91 18.77 95.39 19.2 94.76 19.2C93.89 19.2 93.55 18.85 93.55 18.85C93.47 18.9 93.39 18.94 93.31 18.97C93.24 18.99 90.92 19.78 91 20.67C91.01 20.78 91 20.89 90.99 21V21.04C90.99 21.04 90.99 21.04 90.99 21.05C90.96 21.31 90.9 21.56 90.81 21.79L90.8 21.78C90.56 21.59 89.98 21.75 89.93 21.41C89.74 20.12 89.79 18.58 89.91 17.26L87.39 17.68L87.09 16.12Z" fill="#EDA600"/>
<path d="M86.61 19.38C87.1 16.69 90.35 15.57 91.57 15.14C91.72 15.09 93.95 14.56 94.22 16.54C94.34 17.4 93.69 18.34 92.86 18.66C90.59 19.53 90.6 20.01 90.6 20.33C90.61 21.16 90.15 22.73 89.43 23.2C89.28 23.3 89.11 23.36 88.95 23.36C88.85 23.36 88.75 23.34 88.65 23.3C87.24 22.71 86.33 20.95 86.61 19.38Z" fill="url(#paint27_linear_596_94)"/>
<defs>
<linearGradient id="paint0_linear_596_94" x1="77.0183" y1="73.3788" x2="77.0183" y2="111.706" gradientUnits="userSpaceOnUse">
<stop stop-color="#FFB300"/>
<stop offset="0.5" stop-color="#FFCA28"/>
</linearGradient>
<linearGradient id="paint1_linear_596_94" x1="50.9817" y1="73.3788" x2="50.9817" y2="111.706" gradientUnits="userSpaceOnUse">
<stop stop-color="#FFB300"/>
<stop offset="0.5" stop-color="#FFCA28"/>
</linearGradient>
<radialGradient id="paint2_radial_596_94" cx="0" cy="0" r="1" gradientUnits="userSpaceOnUse" gradientTransform="translate(68.5746 41.8254) scale(7.2421 3.55732)">
<stop offset="0.7275" stop-color="#6D4C41" stop-opacity="0"/>
<stop offset="1" stop-color="#6D4C41"/>
</radialGradient>
<radialGradient id="paint3_radial_596_94" cx="0" cy="0" r="1" gradientUnits="userSpaceOnUse" gradientTransform="translate(75.7119 40.7461) rotate(154.924) scale(2.14009 1.58764)">
<stop offset="0.6628" stop-color="#6D4C41"/>
<stop offset="1" stop-color="#6D4C41" stop-opacity="0"/>
</radialGradient>
<radialGradient id="paint4_radial_596_94" cx="0" cy="0" r="1" gradientTransform="matrix(-0.701292 -9.37438 -7.81292 0.584723 70.1636 34.6958)" gradientUnits="userSpaceOnUse">
<stop offset="0.7247" stop-color="#6D4C41" stop-opacity="0"/>
<stop offset="1" stop-color="#6D4C41"/>
</radialGradient>
<radialGradient id="paint5_radial_596_94" cx="0" cy="0" r="1" gradientTransform="matrix(0.701292 -9.37438 7.81292 0.584723 57.9744 34.6952)" gradientUnits="userSpaceOnUse">
<stop offset="0.7247" stop-color="#6D4C41" stop-opacity="0"/>
<stop offset="1" stop-color="#6D4C41"/>
</radialGradient>
<radialGradient id="paint6_radial_596_94" cx="0" cy="0" r="1" gradientUnits="userSpaceOnUse" gradientTransform="translate(59.5622 41.8254) rotate(180) scale(7.2421 3.55732)">
<stop offset="0.7275" stop-color="#6D4C41" stop-opacity="0"/>
<stop offset="1" stop-color="#6D4C41"/>
</radialGradient>
<radialGradient id="paint7_radial_596_94" cx="0" cy="0" r="1" gradientTransform="matrix(1.93838 0.907016 -0.672879 1.438 52.4273 40.7469)" gradientUnits="userSpaceOnUse">
<stop offset="0.6628" stop-color="#6D4C41"/>
<stop offset="1" stop-color="#6D4C41" stop-opacity="0"/>
</radialGradient>
<linearGradient id="paint8_linear_596_94" x1="80.6712" y1="43.656" x2="93.5083" y2="22.6327" gradientUnits="userSpaceOnUse">
<stop stop-color="#FFB300"/>
<stop offset="0.5" stop-color="#FFCA28"/>
</linearGradient>
<linearGradient id="paint9_linear_596_94" x1="47.1975" y1="43.4768" x2="34.2673" y2="22.7327" gradientUnits="userSpaceOnUse">
<stop stop-color="#FFB300"/>
<stop offset="0.5" stop-color="#FFCA28"/>
</linearGradient>
<linearGradient id="paint10_linear_596_94" x1="64" y1="46.1231" x2="64" y2="71.6197" gradientUnits="userSpaceOnUse">
<stop stop-color="#F78C1F"/>
<stop offset="0.4936" stop-color="#F37F20"/>
<stop offset="1" stop-color="#ED6D23"/>
</linearGradient>
<radialGradient id="paint11_radial_596_94" cx="0" cy="0" r="1" gradientTransform="matrix(3.38947 10.4847 -7.77948 2.51456 69.6362 29.7337)" gradientUnits="userSpaceOnUse">
<stop offset="0.6985" stop-color="#6D4C41" stop-opacity="0"/>
<stop offset="1" stop-color="#6D4C41"/>
</radialGradient>
<radialGradient id="paint12_radial_596_94" cx="0" cy="0" r="1" gradientTransform="matrix(2.54616 1.36539 -1.61876 3.01911 58.896 17.7223)" gradientUnits="userSpaceOnUse">
<stop offset="0.58" stop-color="#6D4C41"/>
<stop offset="1" stop-color="#6D4C41" stop-opacity="0"/>
</radialGradient>
<radialGradient id="paint13_radial_596_94" cx="0" cy="0" r="1" gradientTransform="matrix(-8.32926 -3.50294 1.93799 -4.69398 65.3546 22.9646)" gradientUnits="userSpaceOnUse">
<stop offset="0.6985" stop-color="#6D4C41" stop-opacity="0"/>
<stop offset="1" stop-color="#6D4C41"/>
</radialGradient>
<radialGradient id="paint14_radial_596_94" cx="0" cy="0" r="1" gradientUnits="userSpaceOnUse" gradientTransform="translate(57.7345 20.3568) scale(2.6519 3.24407)">
<stop offset="0.7016" stop-color="#6D4C41" stop-opacity="0"/>
<stop offset="1" stop-color="#6D4C41"/>
</radialGradient>
<radialGradient id="paint15_radial_596_94" cx="0" cy="0" r="1" gradientTransform="matrix(-4.80301 -1.29214 1.20958 -4.49464 57.368 25.0386)" gradientUnits="userSpaceOnUse">
<stop offset="0.6605" stop-color="#6D4C41" stop-opacity="0"/>
<stop offset="1" stop-color="#6D4C41"/>
</radialGradient>
<radialGradient id="paint16_radial_596_94" cx="0" cy="0" r="1" gradientTransform="matrix(5.17314 0.711718 -0.999955 7.26913 56.1926 29.8392)" gradientUnits="userSpaceOnUse">
<stop offset="0.5981" stop-color="#6D4C41" stop-opacity="0"/>
<stop offset="1" stop-color="#6D4C41"/>
</radialGradient>
<radialGradient id="paint17_radial_596_94" cx="0" cy="0" r="1" gradientUnits="userSpaceOnUse" gradientTransform="translate(35.3903 21.198) scale(5.6773)">
<stop stop-color="#FFB300"/>
<stop offset="0.5" stop-color="#FFCA28"/>
</radialGradient>
<linearGradient id="paint18_linear_596_94" x1="64" y1="15.3789" x2="64" y2="21.4371" gradientUnits="userSpaceOnUse">
<stop stop-color="#BDBDBD"/>
<stop offset="1" stop-color="#757575"/>
</linearGradient>
<radialGradient id="paint19_radial_596_94" cx="0" cy="0" r="1" gradientUnits="userSpaceOnUse" gradientTransform="translate(20.8673 8.68081) rotate(90) scale(21.9522 12.3444)">
<stop offset="0.3956" stop-color="#9E9E9E"/>
<stop offset="0.7899" stop-color="#646464"/>
</radialGradient>
<radialGradient id="paint20_radial_596_94" cx="0" cy="0" r="1" gradientUnits="userSpaceOnUse" gradientTransform="translate(107.135 8.76735) rotate(90) scale(21.9522 12.3444)">
<stop offset="0.3956" stop-color="#9E9E9E"/>
<stop offset="0.7899" stop-color="#646464"/>
</radialGradient>
<radialGradient id="paint21_radial_596_94" cx="0" cy="0" r="1" gradientUnits="userSpaceOnUse" gradientTransform="translate(10.2225 12.8524) scale(4.72348 8.17017)">
<stop offset="0.4406" stop-color="#9E9E9E"/>
<stop offset="0.9854" stop-color="#646464"/>
</radialGradient>
<radialGradient id="paint22_radial_596_94" cx="0" cy="0" r="1" gradientUnits="userSpaceOnUse" gradientTransform="translate(117.693 12.8524) rotate(180) scale(4.72348 8.17017)">
<stop offset="0.4406" stop-color="#9E9E9E"/>
<stop offset="0.9854" stop-color="#646464"/>
</radialGradient>
<linearGradient id="paint23_linear_596_94" x1="34.7981" y1="16.6262" x2="34.9028" y2="13.3123" gradientUnits="userSpaceOnUse">
<stop stop-color="#FFB300"/>
<stop offset="0.5" stop-color="#FFCA28"/>
</linearGradient>
<linearGradient id="paint24_linear_596_94" x1="35.0076" y1="20.3319" x2="40.3073" y2="17.6786" gradientUnits="userSpaceOnUse">
<stop stop-color="#FFB300"/>
<stop offset="0.4693" stop-color="#FFCA28"/>
</linearGradient>
<radialGradient id="paint25_radial_596_94" cx="0" cy="0" r="1" gradientUnits="userSpaceOnUse" gradientTransform="translate(92.7297 21.198) rotate(180) scale(5.6773)">
<stop stop-color="#FFB300"/>
<stop offset="0.5" stop-color="#FFCA28"/>
</radialGradient>
<linearGradient id="paint26_linear_596_94" x1="93.3219" y1="16.6262" x2="93.2172" y2="13.3123" gradientUnits="userSpaceOnUse">
<stop stop-color="#FFB300"/>
<stop offset="0.5" stop-color="#FFCA28"/>
</linearGradient>
<linearGradient id="paint27_linear_596_94" x1="93.1124" y1="20.3319" x2="87.8127" y2="17.6786" gradientUnits="userSpaceOnUse">
<stop stop-color="#FFB300"/>
<stop offset="0.4693" stop-color="#FFCA28"/>
</linearGradient>
</defs>
</svg>
