<svg width="128" height="128" viewBox="0 0 128 128" fill="none" xmlns="http://www.w3.org/2000/svg">
<path d="M67.17 13.34C64.66 9.28001 58.97 6.12001 54.26 6.90001C48.98 7.77001 46.15 11.57 45.4 16.39C45.13 18.14 45.18 19.88 45.48 21.11C45.52 21.26 45.81 22.33 45.83 22.67C46.03 23.97 43.51 25.26 43.22 26.69C43 27.77 45.25 28.46 45.43 28.65C46.31 29.62 44.92 34.23 51.09 34.69C53.46 34.87 53 34.72 53.7 34.99C54.79 35.41 54.69 38.31 54.69 38.31C54.69 38.31 55.3 43.09 59.38 41.82C64.04 40.38 64.22 37.08 64.22 37.08C64.22 37.08 62.49 32.48 65.27 27.7C67.48 23.88 68.79 15.95 67.17 13.34Z" fill="#FFCA28"/>
<path d="M46.05 31.23C46.91 31.28 47.75 31.08 48.48 30.54C49.27 29.95 48.73 29.3 47.82 29.68C47.27 29.91 46.5 30.03 45.8 29.9L46.05 31.23Z" fill="#795548"/>
<path d="M49.7047 25.1289C50.3284 25.1093 50.8096 24.3147 50.7793 23.3542C50.749 22.3937 50.2188 21.631 49.595 21.6507C48.9713 21.6703 48.4901 22.4649 48.5204 23.4254C48.5507 24.3859 49.0809 25.1486 49.7047 25.1289Z" fill="#404040"/>
<path d="M48.77 20.82C47.65 21.08 47.43 20.34 47.83 19.78C48.12 19.36 48.81 19.04 50.08 19.36C51.28 19.66 51.74 20.39 52.05 20.83C52.36 21.27 52.29 21.69 52.01 21.72C51.63 21.74 50.15 20.5 48.77 20.82Z" fill="#6D4C41"/>
<path d="M85.26 108.68L71.19 92.63C70.31 91.63 69.79 90.37 69.71 89.04L68.33 66.58L52.83 68.29L57.71 91.46C58.5 95.21 60.61 98.55 63.65 100.88L80.14 113.48L85.26 108.68Z" fill="#616161"/>
<path d="M68.15 62.88L50.57 64.49L46.04 84.88C45.21 88.64 44.92 92.51 45.19 96.35L46.82 119.59H53.49L56.44 94.56C56.44 94.56 61.45 81.24 61.61 81.16C65.68 79.23 69.2 76.24 69.02 71.33C68.93 68.51 68.47 65.67 68.15 62.88Z" fill="#7C7C7C"/>
<path d="M64.89 73.51H52.99C50.72 73.51 48.87 71.33 48.87 68.65L51.02 46.15C51.46 42.04 53.55 38.06 55.65 36.56C57.62 35.15 60.47 34.92 60.47 34.92C62 34.8 64.27 35.17 65.72 37.29C66.59 38.56 67.24 41.04 67.38 43.17L69 68.65C69 71.34 67.16 73.51 64.89 73.51Z" fill="url(#paint0_linear_596_59)"/>
<path d="M66.8 60.29L64.55 46.46L57.58 47.59L59.73 60.78L56.16 70.62C55.93 71.07 52.7 72.53 52.5 72.63C51.88 72.93 51.45 73.52 51.13 74.69C50.94 75.41 50.46 77.47 51.47 77.83C51.13 78.78 51.35 79.97 51.61 80.25C52.21 80.9 52.94 80.61 52.94 80.61C52.94 80.61 53.04 81.44 53.7 81.67C54.52 81.96 55.09 81.51 55.09 81.51C55.38 81.73 55.73 81.85 56.1 81.85C56.54 81.85 56.93 81.68 57.23 81.46C57.42 81.54 57.94 81.85 58.6 81.38C59.02 81.08 60.34 79.35 60.75 78.24C61.03 77.48 60.99 73.66 61.34 72.99C61.69 72.32 66.48 62.79 66.48 62.79H66.47C66.9 62 67 61.11 66.8 60.29Z" fill="url(#paint1_linear_596_59)"/>
<path d="M58.88 78.7C58.65 78.1 58.5 78.06 58.08 78.17C57.51 78.32 56.89 78.3 56.54 77.6C56.46 77.43 56.34 77.37 56.16 77.43C55.55 77.63 54.79 77.64 54.53 76.72C54.43 76.38 54.29 76.34 53.92 76.34C53.8 76.34 53.45 76.49 53.09 76.11C52.69 75.68 53.23 74.82 52.72 74.74C52.57 74.72 51.85 74.8 51.63 74.03C51.49 73.53 52.07 72.93 52.08 72.92C51.68 73.27 51.37 73.82 51.14 74.7C50.95 75.42 50.47 77.48 51.48 77.84C51.14 78.79 51.36 79.98 51.62 80.26C52.22 80.91 52.95 80.62 52.95 80.62C52.95 80.62 53.05 81.45 53.71 81.68C54.53 81.97 55.1 81.52 55.1 81.52C55.39 81.74 55.74 81.86 56.11 81.86C56.55 81.86 56.94 81.69 57.24 81.47C57.43 81.55 57.95 81.86 58.61 81.39C58.96 81.14 59.95 79.87 60.5 78.81C60.01 79.2 59.05 79.15 58.88 78.7Z" fill="url(#paint2_linear_596_59)"/>
<path d="M54.6 123.98C55.23 123.98 55.75 123.47 55.75 122.83V120.03C55.75 118.13 53.82 115.96 53.82 115.96H46.84L40.56 118.03C39.04 118.63 38.03 120.09 38.02 121.72L38.01 122.98C38.01 123.53 38.46 123.98 39.01 123.98H54.6Z" fill="#4568AD"/>
<path d="M89.65 111.84C90.1 111.39 90.1 110.67 89.65 110.22L87.67 108.24C86.32 106.89 83.43 106.72 83.43 106.72L78.5 111.65L75.53 117.56C74.88 119.06 75.2 120.8 76.35 121.97L77.24 122.87C77.63 123.26 78.27 123.26 78.66 122.87L89.65 111.84Z" fill="#325599"/>
<path d="M58.37 79.39C58.44 79.88 58.31 80.25 58.13 80.61C57.93 80.95 57.69 81.26 57.24 81.47C57.17 80.98 57.3 80.61 57.48 80.25C57.67 79.91 57.92 79.6 58.37 79.39Z" fill="#EDA600"/>
<path d="M56.35 78.48C56.42 79.11 56.28 79.67 56.08 80.2C55.86 80.72 55.6 81.23 55.11 81.64C55.04 81 55.18 80.45 55.38 79.92C55.6 79.41 55.87 78.9 56.35 78.48Z" fill="#EDA600"/>
<path d="M53.95 77.48C54.07 78.1 53.97 78.66 53.82 79.2C53.65 79.73 53.42 80.25 52.97 80.7C52.85 80.08 52.95 79.52 53.1 78.98C53.28 78.45 53.51 77.93 53.95 77.48Z" fill="#EDA600"/>
<path d="M53.8 73.88C53.49 74.15 53.19 74.43 52.94 74.73C52.67 75.03 52.54 75.3 52.45 75.69C52.22 76.43 51.99 77.2 51.45 77.91C51.29 77.04 51.45 76.22 51.78 75.44C51.95 75.06 52.28 74.62 52.64 74.4C53.01 74.15 53.4 73.98 53.8 73.88Z" fill="#EDA600"/>
<path d="M56.4 53L67.3 51.02L65.54 41.33C64.99 38.32 62.11 36.32 59.1 36.87C56.09 37.42 54.09 40.3 54.64 43.31L56.4 53Z" fill="#ED6D23"/>
<path d="M70.66 13.53C69.34 10.22 66.66 9.21999 65.78 8.97999C65.37 7.77999 63.29 3.22999 55.78 4.46999C53.95 4.76999 52.61 5.63999 51.43 6.40999C50.93 6.73999 50.45 7.05999 50 7.26999C49.63 7.43999 48.99 7.59999 48.46 7.42999C47.25 7.02999 47.63 5.18999 47.63 5.18999C47.63 5.18999 43.19 6.06999 45.1 10.36C43.61 11.02 42.92 12.6 42.66 14.09C42.3 16.12 43.29 18.05 45.24 18.92C45.24 18.92 44.85 15.66 49.56 15.85C51.02 15.91 52.55 16.14 53.9 15.59C54.42 15.38 54.9 15.05 55.4 14.81C55.52 14.81 55.58 14.81 55.58 14.81C57.36 15.76 55.02 19.97 57 22.43C57.39 22.92 57.72 22.74 57.72 22.74L58.51 21.57C59.11 20.77 59.66 20.07 60.41 20.24C62.63 20.73 62.23 24.69 59.6 25.56C59.34 25.65 59.95 30.06 65.4 30.06C68.22 30.06 69.21 27.72 69.21 27.72C69.21 27.72 68.01 28.02 67.75 27C67.61 26.47 68.1 25.75 68.98 24.97C71.52 22.71 70.6 20.11 70.23 19.3C70.63 18.54 71.69 16.12 70.66 13.53Z" fill="#543930"/>
<path d="M70.24 19.29C70.29 19.2 69.45 21.3 65.85 20.95C64.37 20.95 62.31 24.52 64.47 26.88C66.39 28.96 69.22 27.71 69.22 27.71C69.22 27.71 68.83 27.82 68.26 27.63C67.89 27.5 67.76 27.02 67.76 26.99C67.62 26.46 68.11 25.74 68.99 24.96C71.53 22.69 70.61 20.1 70.24 19.29Z" fill="url(#paint3_radial_596_59)"/>
<path d="M70.66 13.53C69.97 11.79 68.7 10.32 67.02 9.46998C66.78 9.34998 66.18 9.05998 65.77 8.97998C65.97 9.74998 65.95 10.58 65.62 11.43C65.61 11.46 65.23 12.73 64.14 13.74C64.93 14.84 65.33 16.17 65.71 17.48C66.04 18.62 66.36 19.88 65.85 20.95C66.54 20.91 67.64 21.1 68.85 20.56C70.01 20.04 70.62 18.7 70.9 17.5C71.21 16.19 71.16 14.8 70.66 13.53Z" fill="url(#paint4_radial_596_59)"/>
<path d="M65.61 11.44C66.48 9.20999 65.25 7.14999 63.4 5.77999C61.22 4.16999 58.36 4.04999 55.78 4.46999C53.95 4.76999 52.61 5.63999 51.43 6.40999C50.92 6.73999 50.44 7.04999 49.99 7.26999C49.62 7.43999 48.98 7.59999 48.45 7.42999C47.24 7.02999 47.62 5.18999 47.62 5.18999C47.62 5.18999 43.18 6.06999 45.09 10.36C43.6 11.02 42.91 12.6 42.65 14.09C42.29 16.12 43.28 18.05 45.23 18.92C45.23 18.92 44.84 15.66 49.55 15.85C51.01 15.91 52.54 16.14 53.89 15.59C55.09 15.11 55.49 14.46 56.84 14.53C58.29 14.61 60.22 15.16 61.71 14.93C64.72 14.47 65.6 11.48 65.61 11.44Z" fill="url(#paint5_radial_596_59)"/>
<path d="M64.47 26.88C63.5 25.85 63.24 24.15 61.72 23.25C61.44 24.24 60.73 25.17 59.6 25.55C59.34 25.64 59.95 30.05 65.4 30.05C68.22 30.05 69.21 27.71 69.21 27.71C69.21 27.71 66.42 28.95 64.47 26.88Z" fill="url(#paint6_radial_596_59)"/>
<defs>
<linearGradient id="paint0_linear_596_59" x1="51.8724" y1="50.3603" x2="69.1224" y2="62.3603" gradientUnits="userSpaceOnUse">
<stop stop-color="#F78C1F"/>
<stop offset="0.482" stop-color="#F47F12"/>
<stop offset="1" stop-color="#EF6C00"/>
</linearGradient>
<linearGradient id="paint1_linear_596_59" x1="59.1987" y1="70.3828" x2="56.0045" y2="51.6581" gradientUnits="userSpaceOnUse">
<stop offset="0.4606" stop-color="#FFCA28"/>
<stop offset="0.9996" stop-color="#FFB300"/>
</linearGradient>
<linearGradient id="paint2_linear_596_59" x1="53.3336" y1="83.1606" x2="55.5812" y2="77.3081" gradientUnits="userSpaceOnUse">
<stop offset="0.4561" stop-color="#FFCA28"/>
<stop offset="1" stop-color="#FFB300"/>
</linearGradient>
<radialGradient id="paint3_radial_596_59" cx="0" cy="0" r="1" gradientTransform="matrix(6.68096 2.46628 3.55235 -9.62155 63.4329 24.4952)" gradientUnits="userSpaceOnUse">
<stop offset="0.45" stop-color="#6D4C41" stop-opacity="0"/>
<stop offset="1" stop-color="#6D4C41"/>
</radialGradient>
<radialGradient id="paint4_radial_596_59" cx="0" cy="0" r="1" gradientTransform="matrix(7.15321 -0.97022 -1.22433 -9.02651 64.275 17.3154)" gradientUnits="userSpaceOnUse">
<stop offset="0.45" stop-color="#6D4C41" stop-opacity="0"/>
<stop offset="1" stop-color="#6D4C41"/>
</radialGradient>
<radialGradient id="paint5_radial_596_59" cx="0" cy="0" r="1" gradientTransform="matrix(14.6825 -2.27919 -1.7131 -11.0364 56.226 14.8248)" gradientUnits="userSpaceOnUse">
<stop offset="0.45" stop-color="#6D4C41" stop-opacity="0"/>
<stop offset="1" stop-color="#6D4C41"/>
</radialGradient>
<radialGradient id="paint6_radial_596_59" cx="0" cy="0" r="1" gradientTransform="matrix(7.75224 1.97006 1.26618 -4.98393 65.0765 25.368)" gradientUnits="userSpaceOnUse">
<stop offset="0.45" stop-color="#6D4C41" stop-opacity="0"/>
<stop offset="1" stop-color="#6D4C41"/>
</radialGradient>
</defs>
</svg>
