<svg width="20" height="20" viewBox="0 0 20 20" fill="none" xmlns="http://www.w3.org/2000/svg">
<g clip-path="url(#clip0_41_102)">
<path d="M17.5 10C17.5 5.85791 14.1421 2.50004 10 2.50004C5.85787 2.50004 2.5 5.85791 2.5 10C2.5 14.1422 5.85787 17.5 10 17.5C14.1421 17.5 17.5 14.1422 17.5 10ZM9.16667 5.00004C9.16667 4.5398 9.53977 4.16671 10 4.16671C10.4602 4.16671 10.8333 4.5398 10.8333 5.00004V9.4849L13.7061 10.9213L13.7801 10.9632C14.137 11.1892 14.2718 11.6534 14.0788 12.0394C13.8858 12.4254 13.4337 12.5961 13.0387 12.4463L12.9606 12.4122L9.62728 10.7455C9.34496 10.6043 9.16667 10.3157 9.16667 10V5.00004ZM19.1667 10C19.1667 15.0627 15.0626 19.1667 10 19.1667C4.93739 19.1667 0.833336 15.0627 0.833336 10C0.833336 4.93743 4.93739 0.833374 10 0.833374C15.0626 0.833374 19.1667 4.93743 19.1667 10Z" fill="white"/>
</g>
<defs>
<clipPath id="clip0_41_102">
<rect width="20" height="20" fill="white"/>
</clipPath>
</defs>
</svg>
