<svg width="30" height="30" viewBox="0 0 30 30" fill="none" xmlns="http://www.w3.org/2000/svg">
<path d="M14.9062 27.8438C8.36719 27.8438 1.3125 23.7422 1.3125 14.7422C1.3125 5.74219 8.36719 1.64062 14.9062 1.64062C18.5391 1.64062 21.8906 2.83594 24.375 5.01563C27.0703 7.40625 28.5 10.7813 28.5 14.7422C28.5 18.7031 27.0703 22.0547 24.375 24.4453C21.8906 26.625 18.5156 27.8438 14.9062 27.8438Z" fill="url(#paint0_radial_81_120)"/>
<path d="M26.1305 6.95386C27.3797 8.96948 28.0313 11.3695 28.0313 14.039C28.0313 18 26.6016 21.3515 23.9063 23.7421C21.4219 25.9218 18.0469 27.1406 14.4375 27.1406C10.2047 27.1406 5.75626 25.4179 3.14532 21.764C5.6672 25.9031 10.4086 27.8437 14.9063 27.8437C18.5156 27.8437 21.8906 26.625 24.375 24.4453C27.0703 22.0546 28.5 18.7031 28.5 14.7421C28.5 11.7562 27.6867 9.10308 26.1305 6.95386Z" fill="#EB8F00"/>
<path d="M20.1821 23.5524C20.1071 23.5383 20.0368 23.5032 19.9782 23.4516C18.9797 22.5891 17.7305 21.9751 16.343 21.6633C14.9579 21.3516 13.5657 21.368 12.293 21.7196C12.218 21.7407 12.1383 21.7407 12.0657 21.7219C11.904 21.6798 11.7774 21.5462 11.7469 21.3798C11.7165 21.218 11.7844 21.0563 11.9227 20.9602C13.3102 20.004 15.0352 19.6782 16.704 20.0555C18.3727 20.4305 19.793 21.4641 20.6344 22.9243C20.7188 23.0696 20.7118 23.2454 20.6133 23.379C20.5172 23.5173 20.3461 23.5829 20.1821 23.5524Z" fill="#422B0D"/>
<path d="M10.3219 12.8766C9.33987 12.8766 8.4469 13.7063 8.4469 15.0844C8.4469 16.4602 9.33987 17.2922 10.3219 17.2922C11.3039 17.2922 12.1969 16.4625 12.1969 15.0844C12.1969 13.7063 11.3063 12.8766 10.3219 12.8766Z" fill="#422B0D"/>
<path d="M10.2305 13.7977C9.98908 13.6289 9.62579 13.6828 9.39142 14.0203C9.15704 14.3602 9.23439 14.7164 9.47579 14.8852C9.7172 15.0539 10.0805 15 10.3149 14.6625C10.5492 14.325 10.4742 13.9664 10.2305 13.7977Z" fill="#896024"/>
<path d="M19.3125 12.8766C18.3305 12.8766 17.4375 13.7063 17.4375 15.0844C17.4375 16.4602 18.3305 17.2922 19.3125 17.2922C20.2945 17.2922 21.1875 16.4625 21.1875 15.0844C21.1875 13.7063 20.2945 12.8766 19.3125 12.8766Z" fill="#422B0D"/>
<path d="M19.2211 13.7977C18.9797 13.6289 18.6165 13.6828 18.3821 14.0203C18.1477 14.3602 18.225 14.7164 18.4665 14.8852C18.7079 15.0539 19.0711 15 19.3055 14.6625C19.5422 14.3227 19.4625 13.9664 19.2211 13.7977Z" fill="#896024"/>
<path d="M24.375 5.01562C23.0859 3.88359 21.5602 3.02109 19.8844 2.44922L19.4414 2.69297L13.8211 5.37187L4.32656 6.66328L3.83438 6.71719C2.28281 8.74687 1.3125 11.407 1.3125 14.7422C1.3125 16.0125 1.45781 17.182 1.71797 18.2578L15.6938 10.5164L27.4734 9.35156C26.7797 7.68984 25.7391 6.22734 24.375 5.01562Z" fill="#F5F5F5"/>
<path d="M1.80233 18.6094L1.67108 18.0984C1.67108 18.0984 9.13124 12.2719 16.6148 10.0219L17.9273 10.2211C10.3992 12.6094 1.87968 18.5531 1.80233 18.6094Z" fill="#808080"/>
<path d="M14.5875 5.00623L13.2305 5.6531L14.5875 5.00623Z" fill="url(#paint1_linear_81_120)"/>
<path d="M19.8843 2.44922C20.7093 2.69531 21.5109 3.02578 22.2797 3.42188C23.0484 3.81797 23.789 4.28203 24.457 4.85625C25.1133 5.43516 25.6992 6.09609 26.2054 6.81094C26.4586 7.16953 26.6929 7.53984 26.9086 7.92187C27.1242 8.30625 27.3211 8.69063 27.4969 9.1125L27.6422 9.46641L27.2484 9.50625C25.1086 9.72891 22.9664 9.94453 20.8242 10.1391C19.7531 10.2422 18.682 10.3359 17.6109 10.4273C16.5398 10.5188 15.4664 10.6172 14.3953 10.6969C12.2554 10.8586 10.1156 11.0461 7.97576 11.2523L4.76716 11.5758C3.69841 11.6883 2.62966 11.8148 1.56091 11.9414C2.61091 11.7047 3.67263 11.5148 4.73201 11.325C5.79138 11.1352 6.85544 10.9664 7.92185 10.8117C10.0547 10.5023 12.1945 10.2516 14.339 10.0477L17.55 9.73828C18.6211 9.6375 19.6898 9.53672 20.7633 9.44766C22.9054 9.25547 25.0476 9.08672 27.1922 8.92031L26.9437 9.31406C26.6554 8.55 26.2547 7.78359 25.8 7.08047C25.3476 6.37031 24.8203 5.70234 24.2179 5.11172C23.6156 4.52344 22.9195 4.02188 22.1859 3.58594C21.8179 3.36797 21.4406 3.16406 21.0562 2.97656C20.6742 2.78672 20.2851 2.60625 19.8843 2.44922Z" fill="#808080"/>
<path d="M24.375 5.02729C23.1562 5.09994 21.9492 5.13276 20.7398 5.17729C20.1351 5.20541 19.5305 5.19604 18.9258 5.22885L17.1094 5.32494C15.9 5.38822 14.6883 5.47494 13.4812 5.58041C12.2719 5.67416 11.0648 5.79369 9.85546 5.9226L9.85077 5.89916C12.2555 5.55229 14.6719 5.30619 17.093 5.13276C18.3047 5.05072 19.5164 4.98041 20.7305 4.95229C21.9445 4.92885 23.1609 4.92885 24.3726 5.00619L24.375 5.02729Z" fill="#808080"/>
<path d="M3.83435 6.71484C3.36092 7.65 2.92967 8.5875 2.56873 9.54375C2.39295 10.0219 2.22889 10.5023 2.10701 10.9922C1.97107 11.4797 1.8867 11.9648 1.83514 12.4664C1.72498 13.4883 1.63592 14.5102 1.60779 15.5344C1.59607 16.0453 1.58904 16.5586 1.61951 17.0719C1.64295 17.5852 1.68514 18.0984 1.79998 18.6094C1.53748 18.15 1.39685 17.632 1.27732 17.1164C1.16482 16.5984 1.09685 16.0734 1.05935 15.5461C0.984354 14.4914 1.01717 13.4344 1.1367 12.3891C1.25389 11.3133 1.59607 10.2727 2.06717 9.32812C2.5406 8.37656 3.12185 7.48828 3.83435 6.71484Z" fill="#808080"/>
<defs>
<radialGradient id="paint0_radial_81_120" cx="0" cy="0" r="1" gradientUnits="userSpaceOnUse" gradientTransform="translate(14.9062 14.7422) scale(13.3499 13.3499)">
<stop offset="0.5" stop-color="#FDE030"/>
<stop offset="0.9188" stop-color="#F7C02B"/>
<stop offset="1" stop-color="#F4A223"/>
</radialGradient>
<linearGradient id="paint1_linear_81_120" x1="13.9615" y1="5.75862" x2="13.6848" y2="3.50484" gradientUnits="userSpaceOnUse">
<stop offset="0.0652" stop-color="#B3B3B3"/>
<stop offset="0.2661" stop-color="#BDBDBD" stop-opacity="0.7505"/>
<stop offset="0.6106" stop-color="#D9D9D9" stop-opacity="0.3227"/>
<stop offset="0.8705" stop-color="#F2F2F2" stop-opacity="0"/>
</linearGradient>
</defs>
</svg>
