<svg width="30" height="30" viewBox="0 0 30 30" fill="none" xmlns="http://www.w3.org/2000/svg">
<path d="M14.8172 27.8438C8.27814 27.8438 1.22345 23.7422 1.22345 14.7422C1.22345 5.74219 8.27814 1.64062 14.8172 1.64062C18.45 1.64062 21.8016 2.83594 24.2859 5.01562C26.9813 7.40625 28.4109 10.7812 28.4109 14.7422C28.4109 18.7031 26.9813 22.0547 24.2859 24.4453C21.7969 26.625 18.4266 27.8438 14.8172 27.8438Z" fill="url(#paint0_radial_81_175)"/>
<path d="M10.3125 9.59534C9.33047 9.59534 8.4375 10.425 8.4375 11.8031C8.4375 13.1813 9.33047 14.0086 10.3125 14.0086C11.2969 14.0086 12.1875 13.1789 12.1875 11.8031C12.1875 10.4274 11.3062 9.59534 10.3125 9.59534Z" fill="#422B0D"/>
<path d="M10.2305 10.5164C9.89766 10.357 9.49688 10.4976 9.33516 10.8304C9.21094 11.0906 9.26719 11.4023 9.47578 11.6039C9.80859 11.7632 10.2094 11.6226 10.3711 11.2898C10.4953 11.0296 10.4391 10.7179 10.2305 10.5164Z" fill="#896024"/>
<path d="M19.3125 9.59534C18.3305 9.59534 17.4375 10.425 17.4375 11.8031C17.4375 13.1813 18.3305 14.0086 19.3125 14.0086C20.2945 14.0086 21.1875 13.1789 21.1875 11.8031C21.1875 10.4274 20.2945 9.59534 19.3125 9.59534Z" fill="#422B0D"/>
<path d="M19.2188 10.5164C18.8859 10.357 18.4852 10.4976 18.3234 10.8304C18.1992 11.0906 18.2555 11.4023 18.4641 11.6039C18.7969 11.7632 19.1977 11.6226 19.3594 11.2898C19.4836 11.0296 19.4273 10.7179 19.2188 10.5164Z" fill="#896024"/>
<path d="M26.1305 6.95386C27.3797 8.96948 28.0313 11.3695 28.0313 14.039C28.0313 18 26.6016 21.3515 23.9063 23.7421C21.4219 25.9218 18.0469 27.1406 14.4375 27.1406C10.2047 27.1406 5.76564 25.4179 3.14532 21.764C5.6672 25.9031 10.4109 27.8437 14.9063 27.8437C18.5156 27.8437 21.8906 26.625 24.375 24.4453C27.0703 22.0546 28.5 18.7031 28.5 14.7421C28.5 11.7562 27.6867 9.10308 26.1305 6.95386Z" fill="#EB8F00"/>
<path d="M23.9227 16.7859C23.5945 16.1929 22.882 15.9328 22.2492 16.1718C19.8445 16.8726 17.3508 17.2218 14.8453 17.2101C12.3398 17.2218 9.8461 16.8726 7.44141 16.1718C6.81094 15.9328 6.09844 16.1906 5.77032 16.7812C5.45157 17.3695 5.68125 18.0515 5.95078 18.6398C7.45547 21.9445 10.7719 23.9226 14.8266 23.9343H14.8641C18.9188 23.9343 22.2352 21.9445 23.7422 18.6398C24.0094 18.0468 24.2414 17.3742 23.9227 16.7859Z" fill="#422B0D"/>
<path d="M18.5977 23.0016C18.511 22.9219 18.4219 22.8492 18.3328 22.7672C17.3766 21.9258 16.1391 21.4734 14.8641 21.4992C13.5516 21.4781 12.2742 21.9141 11.25 22.7344C11.161 22.807 11.0672 22.8773 10.9805 22.9687C10.8938 23.0602 10.8469 23.1258 10.7906 23.2031C12.0797 23.707 13.4531 23.9648 14.8383 23.9578H14.8758C16.2024 23.9578 17.5172 23.7211 18.7594 23.2547C18.7125 23.1656 18.6586 23.0812 18.5977 23.0016Z" fill="#ED7770"/>
<path d="M22.2493 16.1718C19.8446 16.8726 17.3508 17.2218 14.8453 17.2101C12.3399 17.2218 9.84613 16.8726 7.44144 16.1718C6.81097 15.9328 6.09847 16.1906 5.77035 16.7812C5.72347 16.8703 5.68597 16.964 5.66254 17.0601C5.73988 17.1 5.82894 17.1398 5.93441 17.182C8.75629 18.5953 11.8758 19.3125 15.0305 19.275C18.0563 19.3101 21.0469 18.6515 23.7797 17.3531C23.8899 17.3062 23.9813 17.2617 24.0633 17.2195C24.0446 17.0672 23.9953 16.9172 23.9227 16.7812C23.5946 16.1906 22.8821 15.9304 22.2493 16.1718Z" fill="white"/>
<path d="M23.932 16.7882C23.5992 16.1953 22.8844 15.9328 22.2469 16.1718C19.8422 16.8726 17.3484 17.2218 14.8453 17.2101C12.3398 17.2218 9.8461 16.8726 7.44141 16.1718C6.81094 15.9328 6.09844 16.1906 5.77032 16.7812C5.45157 17.3695 5.68125 18.0515 5.95078 18.6398C6.07032 18.9046 6.20391 19.1648 6.35157 19.4156C6.35157 19.4156 5.85938 17.5921 6.28594 17.0625C6.43125 16.8375 6.675 16.6968 6.94219 16.6828C7.05235 16.6828 7.16016 16.7015 7.26563 16.7343C9.7125 17.4539 12.2508 17.8171 14.8031 17.8125H14.8852C17.4375 17.8171 19.9758 17.4539 22.4227 16.7343C22.5281 16.7015 22.6359 16.6828 22.7461 16.6828C23.0133 16.6968 23.2594 16.8375 23.4047 17.0625C23.8383 17.5921 23.3391 19.4226 23.3391 19.4226C23.4844 19.1718 23.6297 18.914 23.7516 18.6468C24.0188 18.0585 24.2508 17.3789 23.932 16.7882Z" fill="#EB8F00"/>
<defs>
<radialGradient id="paint0_radial_81_175" cx="0" cy="0" r="1" gradientUnits="userSpaceOnUse" gradientTransform="translate(14.8172 14.7422) scale(13.3499)">
<stop offset="0.5" stop-color="#FDE030"/>
<stop offset="0.92" stop-color="#F7C02B"/>
<stop offset="1" stop-color="#F4A223"/>
</radialGradient>
</defs>
</svg>
