<svg width="30" height="30" viewBox="0 0 30 30" fill="none" xmlns="http://www.w3.org/2000/svg">
<path d="M22.0289 2.10229C16.8937 2.10229 15.007 7.34995 15.007 7.34995C15.007 7.34995 13.1461 2.10229 7.97576 2.10229C4.08982 2.10229 -0.339869 5.18198 1.29607 12.1828C2.93201 19.1835 15.0211 27.9046 15.0211 27.9046C15.0211 27.9046 27.0656 19.1835 28.7039 12.1828C30.3398 5.18198 26.2289 2.10229 22.0289 2.10229Z" fill="#F44336"/>
<path d="M7.18354 2.62495C11.2148 2.62495 13.2164 6.95855 13.8632 8.71401C13.9546 8.9648 14.3039 8.97183 14.4093 8.72808L15 7.34761C14.1679 4.6898 11.8804 2.10229 7.97573 2.10229C6.35854 2.10229 4.64995 2.63667 3.32104 3.76401C4.49526 2.99292 5.87104 2.62495 7.18354 2.62495Z" fill="#CC3333"/>
<path d="M22.0289 2.10229C20.789 2.10229 19.6593 2.37183 18.7781 2.91558C19.3968 2.67651 20.1632 2.62495 20.9226 2.62495C24.7218 2.62495 28.1226 5.50542 26.5875 12.164C25.2703 17.8804 17.5734 24.8156 15.2226 27.4617C15.0726 27.6304 15.0211 27.9023 15.0211 27.9023C15.0211 27.9023 27.0656 19.1812 28.7039 12.1804C30.3398 5.18198 26.2359 2.10229 22.0289 2.10229Z" fill="#CC3333"/>
<path d="M3.99374 5.81712C4.87264 4.72024 6.44295 3.81321 7.7742 4.85852C8.49374 5.42337 8.17967 6.58118 7.53514 7.06868C6.59764 7.78118 5.78202 8.21009 5.21014 9.32571C4.86795 9.99603 4.6617 10.7296 4.55624 11.4773C4.51405 11.7726 4.12733 11.8452 3.98202 11.5851C2.99295 9.83196 2.7117 7.4179 3.99374 5.81712Z" fill="#FF8A80"/>
<path d="M18.0844 8.1234C17.6719 8.1234 17.3812 7.72496 17.5312 7.34058C17.8102 6.63277 18.1711 5.9484 18.6047 5.33902C19.2469 4.43902 20.468 3.91402 21.2414 4.46012C22.0336 5.01793 21.9305 6.13355 21.375 6.67262C20.182 7.82808 18.6773 8.1234 18.0844 8.1234Z" fill="#FF8A80"/>
</svg>
