<svg width="30" height="30" viewBox="0 0 30 30" fill="none" xmlns="http://www.w3.org/2000/svg">
<g clip-path="url(#clip0_81_100)">
<path d="M17.3578 27.0609C20.025 29.7281 24.3914 29.7281 27.0609 27.0609C29.7281 24.3938 29.7281 20.0273 27.0609 17.3578L19.8516 10.1484L10.1484 19.8516L17.3578 27.0609Z" fill="#F44336"/>
<path d="M19.8515 10.1485L12.6422 2.93911C9.97499 0.271924 5.60858 0.271924 2.93905 2.93911C0.271863 5.6063 0.271863 9.9727 2.93905 12.6422L10.1484 19.8516L19.8515 10.1485Z" fill="#FDD835"/>
<path d="M10.6451 20.3498L20.3484 10.6465L19.8512 10.1493L10.1479 19.8526L10.6451 20.3498Z" fill="#C62828"/>
<g opacity="0.65">
<path d="M16.2726 8.49611C19.1226 11.6016 24.2929 17.461 24.2929 17.461C24.9632 18.0727 25.8843 19.65 25.282 20.1938C24.6398 20.775 23.1445 19.5492 22.4742 18.9375L11.5359 8.64611C10.8679 8.03439 8.63199 6.05392 9.06793 4.65939C9.89058 2.02736 13.0992 5.03674 16.2726 8.49611Z" fill="white"/>
</g>
</g>
<defs>
<clipPath id="clip0_81_100">
<rect width="30" height="30" fill="white"/>
</clipPath>
</defs>
</svg>
