<svg width="30" height="30" viewBox="0 0 30 30" fill="none" xmlns="http://www.w3.org/2000/svg">
<path d="M14.9062 27.8438C8.36719 27.8438 1.3125 23.7422 1.3125 14.7422C1.3125 5.74219 8.36719 1.64062 14.9062 1.64062C18.5391 1.64062 21.8906 2.83594 24.375 5.01562C27.0703 7.40625 28.5 10.7812 28.5 14.7422C28.5 18.7031 27.0703 22.0547 24.375 24.4453C21.8906 26.625 18.5156 27.8438 14.9062 27.8438Z" fill="url(#paint0_radial_81_163)"/>
<path d="M10.3125 9.59521C9.33047 9.59521 8.4375 10.4249 8.4375 11.803C8.4375 13.1812 9.33047 14.0085 10.3125 14.0085C11.2969 14.0085 12.1875 13.1788 12.1875 11.803C12.1875 10.4272 11.3062 9.59521 10.3125 9.59521Z" fill="#422B0D"/>
<path d="M10.2305 10.5164C9.89766 10.357 9.49688 10.4976 9.33516 10.8304C9.21094 11.0906 9.26719 11.4023 9.47578 11.6039C9.80859 11.7632 10.2094 11.6226 10.3711 11.2898C10.4953 11.0296 10.4391 10.7179 10.2305 10.5164Z" fill="#896024"/>
<path d="M19.3125 9.59521C18.3305 9.59521 17.4375 10.4249 17.4375 11.803C17.4375 13.1812 18.3305 14.0085 19.3125 14.0085C20.2945 14.0085 21.1875 13.1788 21.1875 11.803C21.1875 10.4272 20.2945 9.59521 19.3125 9.59521Z" fill="#422B0D"/>
<path d="M19.2188 10.5164C18.8859 10.357 18.4852 10.4976 18.3234 10.8304C18.1992 11.0906 18.2555 11.4023 18.4641 11.6039C18.7969 11.7632 19.1977 11.6226 19.3594 11.2898C19.4836 11.0296 19.4273 10.7179 19.2188 10.5164Z" fill="#896024"/>
<path d="M14.7656 21.471C12.6399 21.4874 10.6102 20.5945 9.18751 19.0148C9.0797 18.8906 9.05392 18.7148 9.12189 18.5648C9.18986 18.4124 9.33986 18.314 9.50626 18.3116C9.58126 18.3116 9.65626 18.3327 9.72189 18.3702C10.8516 19.0195 12.7406 19.8257 14.7656 19.8257H14.7984C16.8211 19.8257 18.7125 19.0195 19.8399 18.3702C19.9055 18.3327 19.9805 18.3116 20.0555 18.3116C20.2219 18.314 20.3719 18.4124 20.4399 18.5648C20.5102 18.7148 20.4844 18.8906 20.3742 19.0148C18.9516 20.5945 16.9172 21.4898 14.7914 21.471" fill="#422B0D"/>
<path d="M26.1305 6.95386C27.3797 8.96948 28.0313 11.3695 28.0313 14.039C28.0313 18 26.6016 21.3515 23.9063 23.7421C21.4219 25.9218 18.0469 27.1406 14.4375 27.1406C10.2047 27.1406 5.76564 25.4179 3.14532 21.764C5.6672 25.9031 10.4109 27.8437 14.9063 27.8437C18.5156 27.8437 21.8906 26.625 24.375 24.4453C27.0703 22.0546 28.5 18.7031 28.5 14.7421C28.5 11.7562 27.6867 9.10308 26.1305 6.95386Z" fill="#EB8F00"/>
<defs>
<radialGradient id="paint0_radial_81_163" cx="0" cy="0" r="1" gradientUnits="userSpaceOnUse" gradientTransform="translate(14.9062 14.7422) scale(13.3499)">
<stop offset="0.5" stop-color="#FDE030"/>
<stop offset="0.92" stop-color="#F7C02B"/>
<stop offset="1" stop-color="#F4A223"/>
</radialGradient>
</defs>
</svg>
