<svg width="30" height="30" viewBox="0 0 30 30" fill="none" xmlns="http://www.w3.org/2000/svg">
<path d="M14.9062 27.8438C8.36719 27.8438 1.3125 23.7422 1.3125 14.7422C1.3125 5.74219 8.36719 1.64062 14.9062 1.64062C18.5391 1.64062 21.8906 2.83594 24.375 5.01562C27.0703 7.40625 28.5 10.7812 28.5 14.7422C28.5 18.7031 27.0703 22.0547 24.375 24.4453C21.8906 26.625 18.5156 27.8438 14.9062 27.8438Z" fill="url(#paint0_radial_81_189)"/>
<path d="M26.1305 6.95386C27.3797 8.96948 28.0313 11.3695 28.0313 14.039C28.0313 18 26.6016 21.3515 23.9063 23.7421C21.4219 25.9218 18.0469 27.1406 14.4375 27.1406C10.2047 27.1406 5.76564 25.4179 3.14532 21.764C5.6672 25.9031 10.4109 27.8437 14.9063 27.8437C18.5156 27.8437 21.8906 26.625 24.375 24.4453C27.0703 22.0546 28.5 18.7031 28.5 14.7421C28.5 11.7562 27.6867 9.10308 26.1305 6.95386Z" fill="#EB8F00"/>
<path d="M14.9742 19.2188C12.5156 19.2188 10.7554 20.693 10.2328 21.5109C10.0335 21.7758 9.99371 22.125 10.125 22.4273C10.2257 22.6195 10.425 22.7391 10.6406 22.7344C10.7203 22.732 10.8 22.7203 10.875 22.6969C12.1125 22.3008 13.1953 21.7266 14.9742 21.7266C16.7531 21.7266 17.8359 22.3008 19.0734 22.6969C19.1484 22.7227 19.2281 22.7344 19.3078 22.7344C19.5234 22.7391 19.7226 22.6195 19.8234 22.4273C19.9546 22.125 19.9148 21.7758 19.7156 21.5109C19.1859 20.693 17.4304 19.2188 14.9742 19.2188Z" fill="#422B0D"/>
<path d="M11.2875 13.0806C9.86952 12.7102 8.37187 12.7665 6.98437 13.2423C6.73593 13.3384 6.61171 13.6149 6.7078 13.8634C6.79687 14.0954 7.0453 14.2196 7.28437 14.154C7.83983 14.0462 8.40702 14.0157 8.97187 14.0602C8.97187 14.0743 8.97187 14.1516 8.97187 14.1516C8.97187 15.2977 9.71483 15.9915 10.5351 15.9915C10.9547 15.9868 11.3555 15.8134 11.6461 15.5087C12.1336 14.9907 12.2344 14.2173 11.8922 13.5938C11.7633 13.3524 11.5476 13.1673 11.2875 13.0806Z" fill="#422B0D"/>
<path d="M22.5 13.0806C21.082 12.7102 19.5843 12.7665 18.1968 13.2423C17.9461 13.3313 17.8125 13.6056 17.9015 13.8563C17.9906 14.1071 18.2648 14.2407 18.5156 14.1516C19.0711 14.0438 19.6383 14.0134 20.2008 14.0579C20.2008 14.072 20.2008 14.1493 20.2008 14.1493C20.2008 15.2954 20.9461 15.9891 21.764 15.9891C22.1859 15.9845 22.5867 15.811 22.8773 15.5063C23.3578 14.9884 23.4515 14.2196 23.1117 13.6009C22.9828 13.3571 22.7625 13.1696 22.5 13.0806Z" fill="#422B0D"/>
<path d="M20.55 10.3125C20.3133 10.3172 20.1187 10.1274 20.114 9.89066C20.1094 9.65394 20.2992 9.45941 20.5359 9.45472C20.9906 9.4055 21.4523 9.43363 21.8976 9.53675C23.1117 9.78284 24.1898 10.4789 24.9117 11.4844C25.2351 11.9719 24.6023 12.375 24.2226 12.0118C23.2312 11.0368 21.9351 10.4368 20.55 10.3125Z" fill="#422B0D"/>
<path d="M8.8781 10.3125C9.11482 10.3172 9.30935 10.1274 9.31404 9.89066C9.31873 9.65394 9.12888 9.45941 8.89216 9.45472C8.43748 9.4055 7.97576 9.43363 7.53044 9.53675C6.31638 9.78284 5.23826 10.4789 4.51638 11.4844C4.1906 11.9719 4.82576 12.375 5.20544 12.0118C6.19685 11.0368 7.49294 10.4368 8.8781 10.3125Z" fill="#422B0D"/>
<path d="M10.5609 13.8704C10.8937 13.711 11.2945 13.8516 11.4562 14.1844C11.5805 14.4446 11.5242 14.7563 11.3156 14.9579C10.9828 15.1172 10.582 14.9766 10.4203 14.6438C10.2961 14.3837 10.3523 14.0719 10.5609 13.8704Z" fill="#896024"/>
<path d="M21.8109 13.8704C22.1461 13.7133 22.5445 13.8563 22.7039 14.1915C22.8258 14.4516 22.7695 14.7587 22.5633 14.9579C22.2281 15.1149 21.8297 14.9719 21.6703 14.6368C21.5484 14.379 21.6047 14.0696 21.8109 13.8704Z" fill="#896024"/>
<defs>
<radialGradient id="paint0_radial_81_189" cx="0" cy="0" r="1" gradientUnits="userSpaceOnUse" gradientTransform="translate(14.9062 14.7422) scale(13.3499)">
<stop offset="0.5" stop-color="#FDE030"/>
<stop offset="0.92" stop-color="#F7C02B"/>
<stop offset="1" stop-color="#F4A223"/>
</radialGradient>
</defs>
</svg>
