<svg width="30" height="28" viewBox="0 0 30 28" fill="none" xmlns="http://www.w3.org/2000/svg">
<g filter="url(#filter0_d_41_122)">
<path d="M15 14V19M19 12V19M23 8V19M25 1L16.354 9.646C16.3076 9.69256 16.2524 9.72951 16.1916 9.75471C16.1309 9.77992 16.0658 9.79289 16 9.79289C15.9342 9.79289 15.8691 9.77992 15.8084 9.75471C15.7476 9.72951 15.6924 9.69256 15.646 9.646L12.354 6.354C12.2602 6.26026 12.1331 6.20761 12.0005 6.20761C11.8679 6.20761 11.7408 6.26026 11.647 6.354L5 13M7 16V19M11 12V19" stroke="#2E5D85" stroke-width="2" stroke-linecap="round" stroke-linejoin="round" shape-rendering="crispEdges"/>
</g>
<defs>
<filter id="filter0_d_41_122" x="0" y="0" width="30" height="28" filterUnits="userSpaceOnUse" color-interpolation-filters="sRGB">
<feFlood flood-opacity="0" result="BackgroundImageFix"/>
<feColorMatrix in="SourceAlpha" type="matrix" values="0 0 0 0 0 0 0 0 0 0 0 0 0 0 0 0 0 0 127 0" result="hardAlpha"/>
<feOffset dy="4"/>
<feGaussianBlur stdDeviation="2"/>
<feComposite in2="hardAlpha" operator="out"/>
<feColorMatrix type="matrix" values="0 0 0 0 0 0 0 0 0 0 0 0 0 0 0 0 0 0 0.25 0"/>
<feBlend mode="normal" in2="BackgroundImageFix" result="effect1_dropShadow_41_122"/>
<feBlend mode="normal" in="SourceGraphic" in2="effect1_dropShadow_41_122" result="shape"/>
</filter>
</defs>
</svg>
